<?xml version="1.0" encoding="utf-8"?>
<!-- Generator: Adobe Illustrator 16.2.0, SVG Export Plug-In . SVG Version: 6.00 Build 0)  -->
<!DOCTYPE svg PUBLIC "-//W3C//DTD SVG 1.1//EN" "http://www.w3.org/Graphics/SVG/1.1/DTD/svg11.dtd">
<svg version="1.1" id="Layer_1" xmlns="http://www.w3.org/2000/svg" xmlns:xlink="http://www.w3.org/1999/xlink" x="0px" y="0px"
	 width="643.271px" height="263.596px" viewBox="0 0 643.271 263.596" enable-background="new 0 0 643.271 263.596"
	 xml:space="preserve">
<path fill="#0F1112" d="M288.059,231.588l-10.04,32.004H153.127l10.043-32.004c14.433,0,32.009,1.252,32.009-10.043v-32.635h-72.801
	l-21.965,24.479c-9.414,9.414-6.277,18.202,3.767,18.202h26.356l-10.04,32.004H0l10.044-32.004
	c11.925,0.622,19.453-1.26,26.986-8.159L192.668,43.942c3.762-3.767,3.136-8.788-4.396-8.788h-21.339l10.67-35.145h108.571
	l55.857,151.249L397.886,0.009h170.699c36.4-0.626,64.016,30.749,64.016,58.995c0,26.987-10.043,50.833-35.77,65.894
	c30.123,11.295,46.439,29.497,46.439,69.031c-0.629,40.796-35.771,69.034-87.229,69.663H389.732l10.035-32.634
	c19.457,0,30.752-5.018,30.752-17.572V50.846l-76.563,212.747H326.97L252.288,60.256v155.011
	C252.288,230.958,261.698,231.588,288.059,231.588L288.059,231.588z M532.81,107.326c23.85,0,40.17-12.551,40.797-34.516
	c-0.629-21.339-11.303-39.537-46.443-39.537H487v74.053H532.81z M195.179,155.025v-47.699l-42.052,47.699H195.179L195.179,155.025z
	 M537.835,227.822c27.609,0,42.67-20.709,42.67-42.048c-0.629-18.202-15.061-38.281-40.791-38.281H487v80.329H537.835z"/>
</svg>
