<svg id="Contact" xmlns="http://www.w3.org/2000/svg" width="24" height="24" viewBox="0 0 24 24">
  <g id="Message_36" data-name="Message 36">
    <path id="Vector" d="M15.752.523A5.75,5.75,0,0,1,18.2,2.658a4.419,4.419,0,0,1,.309.577,16.525,16.525,0,0,1,.878,4.172l.024.176c.214,1.54.381,2.744.432,3.714a5.989,5.989,0,0,1-.307,2.558,5.75,5.75,0,0,1-2.531,2.907,5.989,5.989,0,0,1-2.492.656c-.968.083-2.183.083-3.738.083h-1.7c-1.555,0-2.77,0-3.738-.083a5.989,5.989,0,0,1-2.492-.656A5.75,5.75,0,0,1,.323,13.854,5.989,5.989,0,0,1,.016,11.3c.051-.97.218-2.174.432-3.714l.021-.153a18.714,18.714,0,0,1,.8-3.994,4.547,4.547,0,0,1,.394-.777A5.75,5.75,0,0,1,4.112.523,5.865,5.865,0,0,1,6.161.059C6.931,0,7.881,0,9.089,0h1.686c1.208,0,2.158,0,2.928.059a5.864,5.864,0,0,1,2.049.464ZM2.925,3.464q-.029.045-.056.091l.4.4A45.123,45.123,0,0,0,7.2,7.641a4.24,4.24,0,0,0,2.607,1.1,4.24,4.24,0,0,0,2.607-1.1,45.126,45.126,0,0,0,3.933-3.684l.55-.55a4.25,4.25,0,0,0-1.774-1.52,4.406,4.406,0,0,0-1.539-.332c-.706-.054-1.6-.055-2.844-.055H9.12c-1.246,0-2.138,0-2.844.055a4.406,4.406,0,0,0-1.539.332A4.25,4.25,0,0,0,2.925,3.464ZM17.372,5.058a45.649,45.649,0,0,1-4.044,3.775,5.7,5.7,0,0,1-3.517,1.4,5.7,5.7,0,0,1-3.517-1.4A44.4,44.4,0,0,1,2.341,5.149c-.128.644-.245,1.473-.4,2.6-.22,1.583-.378,2.724-.425,3.622a4.542,4.542,0,0,0,.205,1.931A4.25,4.25,0,0,0,3.59,15.454a4.542,4.542,0,0,0,1.885.469C6.37,16,7.521,16,9.12,16h1.624c1.6,0,2.75,0,3.645-.078a4.542,4.542,0,0,0,1.885-.469,4.25,4.25,0,0,0,1.871-2.148,4.542,4.542,0,0,0,.205-1.931c-.047-.9-.2-2.038-.425-3.622-.174-1.255-.3-2.137-.444-2.8Z" transform="translate(2.25 3.25)" fill="#2d264b" fill-rule="evenodd"/>
  </g>
</svg>
