<?xml version="1.0" encoding="utf-8"?>
<!-- Generator: Adobe Illustrator 16.0.0, SVG Export Plug-In . SVG Version: 6.00 Build 0)  -->
<!DOCTYPE svg PUBLIC "-//W3C//DTD SVG 1.1//EN" "http://www.w3.org/Graphics/SVG/1.1/DTD/svg11.dtd">
<svg version="1.1" id="Layer_1" xmlns="http://www.w3.org/2000/svg" xmlns:xlink="http://www.w3.org/1999/xlink" x="0px" y="0px"
	 width="22.482px" height="21.451px" viewBox="-0.716 -0.453 22.482 21.451" enable-background="new -0.716 -0.453 22.482 21.451"
	 xml:space="preserve">
<g>
	<path id="Path_1" fill="none" stroke="#2D264B" stroke-miterlimit="10" d="M3.579,18.479v1.77h13.894v-1.77h-4.018v-1.725H7.454
		v1.725H3.579z"/>
	<g>
		<path id="Subtraction_3" fill="none" stroke="#2D264B" stroke-width="1.5" stroke-miterlimit="10" d="M18.137,15.757H2.916
			c-1.592,0-2.882-1.29-2.882-2.882V3.178c0-1.591,1.29-2.88,2.882-2.88h15.221c1.59,0,2.88,1.29,2.88,2.88v9.698
			C21.017,14.467,19.727,15.757,18.137,15.757z"/>
		<path id="Subtraction_2" fill="none" stroke="#2D264B" stroke-miterlimit="10" d="M8.104,5.277v5.501l4.895-2.751L8.104,5.277z"/>
		<path id="Subtraction_3_1_" fill="none" stroke="#2D264B" stroke-miterlimit="10" d="M16.174,12.936H4.93
			c-1.177,0-2.129-0.85-2.129-1.899v-6.39c0-1.048,0.952-1.898,2.129-1.898h11.244c1.175,0,2.127,0.85,2.127,1.898v6.39
			C18.301,12.086,17.349,12.936,16.174,12.936z"/>
	</g>
</g>
</svg>
