<svg id="Hicon_Outline_Search_1" data-name="Hicon / Outline / Search 1" xmlns="http://www.w3.org/2000/svg" width="24" height="24" viewBox="0 0 24 24">
  <g id="Search_1" data-name="Search 1">
    <path id="Vector" d="M4.552,8.085A.75.75,0,0,1,3.071,7.85a5.75,5.75,0,0,1,4.78-4.78.75.75,0,0,1,.235,1.482A4.25,4.25,0,0,0,4.552,8.085Z" transform="translate(1.25 0.25)" fill="#2d264b"/>
    <path id="Vector-2" data-name="Vector" d="M19.5,9.75A9.75,9.75,0,1,1,9.75,0,9.75,9.75,0,0,1,19.5,9.75ZM9.75,18A8.25,8.25,0,1,0,1.5,9.75,8.25,8.25,0,0,0,9.75,18Z" transform="translate(1.25 0.25)" fill="#2d264b" fill-rule="evenodd"/>
    <path id="Vector-3" data-name="Vector" d="M22.28,21.22A.75.75,0,1,1,21.22,22.28l-4-4A.75.75,0,0,1,18.28,17.22Z" transform="translate(1.25 0.25)" fill="#2d264b"/>
  </g>
</svg>
