<svg id="UploaderIcon" xmlns="http://www.w3.org/2000/svg" width="30" height="30.554" viewBox="0 0 30 30.554">
  <g id="Camera_1" data-name="Camera 1">
    <path id="Vector" d="M15.5,12.147A4.75,4.75,0,1,1,10.75,7.4a4.75,4.75,0,0,1,4.75,4.75ZM10.75,15.4a3.25,3.25,0,1,0-3.25-3.25A3.25,3.25,0,0,0,10.75,15.4Z" transform="translate(4.25 5.165)" fill="#fff" fill-rule="evenodd"/>
    <path id="Vector-2" data-name="Vector" d="M20.394,2.2a4.514,4.514,0,0,0,3,1.14A6.607,6.607,0,0,1,30,9.951v7.061c0,2.563,0,4.571-.173,6.165a8.126,8.126,0,0,1-1.36,4.069,8.023,8.023,0,0,1-1.775,1.775,8.125,8.125,0,0,1-4.069,1.36c-1.594.173-3.6.173-6.165.173H13.541c-2.563,0-4.571,0-6.165-.173a8.126,8.126,0,0,1-4.069-1.36,8.023,8.023,0,0,1-1.775-1.775,8.125,8.125,0,0,1-1.36-4.069C0,21.583,0,19.575,0,17.012V9.951A6.607,6.607,0,0,1,6.607,3.344a4.514,4.514,0,0,0,3-1.14l.3-.268a7.666,7.666,0,0,1,10.186,0ZM11,3.768A6.607,6.607,0,0,1,6.607,5.437,4.514,4.514,0,0,0,2.093,9.951v7c0,2.639,0,4.535.16,6a6.09,6.09,0,0,0,.972,3.064,5.93,5.93,0,0,0,1.312,1.312A6.09,6.09,0,0,0,7.6,28.3c1.468.159,3.363.16,6,.16H16.4c2.639,0,4.535,0,6-.16a6.09,6.09,0,0,0,3.064-.972,5.93,5.93,0,0,0,1.312-1.312,6.091,6.091,0,0,0,.972-3.064c.159-1.468.16-3.363.16-6v-7a4.514,4.514,0,0,0-4.514-4.514A6.607,6.607,0,0,1,19,3.768L18.7,3.5a5.573,5.573,0,0,0-7.405,0Z" transform="translate(0 0)" fill="#fff" fill-rule="evenodd"/>
    <path id="Vector-3" data-name="Vector" d="M16.75,6.147a1,1,0,1,1-1,1,1,1,0,0,1,1-1Z" transform="translate(6.865 2.674)" fill="#fff"/>
  </g>
</svg>
