<svg xmlns="http://www.w3.org/2000/svg" xmlns:xlink="http://www.w3.org/1999/xlink" width="602.375" height="596.809" viewBox="0 0 602.375 596.809">
  <defs>
    <linearGradient id="linear-gradient" x1="1.003" y1="1.087" x2="0.095" y2="0.056" gradientUnits="objectBoundingBox">
      <stop offset="0" stop-color="#dae3fe"/>
      <stop offset="1" stop-color="#e9effd"/>
    </linearGradient>
    <linearGradient id="linear-gradient-2" x1="3.614" y1="-3.257" x2="-0.159" y2="2.36" gradientUnits="objectBoundingBox">
      <stop offset="0" stop-color="#fdf53f"/>
      <stop offset="1" stop-color="#d93c65"/>
    </linearGradient>
    <linearGradient id="linear-gradient-3" x1="2.711" y1="-4.664" x2="0.627" y2="1.782" xlink:href="#linear-gradient-2"/>
    <linearGradient id="linear-gradient-4" x1="7.173" y1="-5.873" x2="3.287" y2="0.341" gradientUnits="objectBoundingBox">
      <stop offset="0" stop-color="#a737d5"/>
      <stop offset="1" stop-color="#ef497a"/>
    </linearGradient>
    <linearGradient id="linear-gradient-5" x1="8.221" y1="-6.978" x2="4.335" y2="-0.764" xlink:href="#linear-gradient-4"/>
    <linearGradient id="linear-gradient-6" x1="9.156" y1="-6.941" x2="4.042" y2="-0.262" xlink:href="#linear-gradient-4"/>
    <linearGradient id="linear-gradient-7" x1="10.317" y1="-9.187" x2="6.43" y2="-2.973" xlink:href="#linear-gradient-4"/>
    <linearGradient id="linear-gradient-8" x1="-2.509" y1="-3.677" x2="-7.471" y2="1.65" xlink:href="#linear-gradient-4"/>
    <linearGradient id="linear-gradient-9" x1="0.5" y1="0.941" x2="0.429" y2="-0.71" gradientUnits="objectBoundingBox">
      <stop offset="0" stop-color="#09005d"/>
      <stop offset="1" stop-color="#1a0f91"/>
    </linearGradient>
    <linearGradient id="linear-gradient-10" x1="-0.196" y1="-0.712" x2="2.177" y2="3.418" gradientUnits="objectBoundingBox">
      <stop offset="0" stop-color="#ff928e"/>
      <stop offset="1" stop-color="#fe7062"/>
    </linearGradient>
    <linearGradient id="linear-gradient-11" x1="-0.196" y1="-2.376" x2="1.09" y2="3.529" xlink:href="#linear-gradient-10"/>
    <linearGradient id="linear-gradient-12" x1="-0.897" y1="-0.736" x2="7.16" y2="6.41" gradientUnits="objectBoundingBox">
      <stop offset="0" stop-color="#4f52ff"/>
      <stop offset="1" stop-color="#4042e2"/>
    </linearGradient>
    <linearGradient id="linear-gradient-13" x1="-3.047" y1="-2.642" x2="5.01" y2="4.503" xlink:href="#linear-gradient-12"/>
    <linearGradient id="linear-gradient-14" x1="2.578" y1="-2.211" x2="-1.787" y2="3.403" xlink:href="#linear-gradient-12"/>
    <linearGradient id="linear-gradient-15" x1="3.377" y1="-3.239" x2="-0.988" y2="2.375" xlink:href="#linear-gradient-12"/>
    <linearGradient id="linear-gradient-16" x1="4.049" y1="-3.235" x2="-1.695" y2="2.799" xlink:href="#linear-gradient-12"/>
    <linearGradient id="linear-gradient-17" x1="4.975" y1="-5.294" x2="0.61" y2="0.32" xlink:href="#linear-gradient-12"/>
    <linearGradient id="linear-gradient-18" x1="1.519" y1="-0.775" x2="-1.484" y2="2.907" gradientUnits="objectBoundingBox">
      <stop offset="0" stop-color="#2b3582"/>
      <stop offset="1" stop-color="#150e42"/>
    </linearGradient>
    <linearGradient id="linear-gradient-19" x1="1.004" y1="-2.464" x2="-0.074" y2="4.125" xlink:href="#linear-gradient-18"/>
    <linearGradient id="linear-gradient-20" x1="-0.3" y1="1.165" x2="2.009" y2="-0.739" xlink:href="#linear-gradient-10"/>
    <linearGradient id="linear-gradient-21" x1="0.727" y1="-2.869" x2="0.282" y2="3.71" xlink:href="#linear-gradient-12"/>
    <linearGradient id="linear-gradient-22" x1="-20.07" y1="0.5" x2="-19.051" y2="0.5" gradientUnits="objectBoundingBox">
      <stop offset="0" stop-color="#090056"/>
      <stop offset="1" stop-color="#020039"/>
    </linearGradient>
    <linearGradient id="linear-gradient-23" x1="-0.757" y1="-8.611" x2="1.326" y2="6.388" xlink:href="#linear-gradient-22"/>
    <linearGradient id="linear-gradient-24" x1="-50.676" y1="0.5" x2="-49.676" y2="0.5" xlink:href="#linear-gradient-22"/>
    <linearGradient id="linear-gradient-25" x1="-4.222" y1="-41.413" x2="0.364" y2="-1.051" xlink:href="#linear-gradient-22"/>
    <linearGradient id="linear-gradient-26" x1="-77.339" y1="0.5" x2="-76.339" y2="0.5" gradientUnits="objectBoundingBox">
      <stop offset="0" stop-color="#febbba"/>
      <stop offset="1" stop-color="#ff928e"/>
    </linearGradient>
    <linearGradient id="linear-gradient-27" x1="-80.282" y1="0.5" x2="-79.282" y2="0.5" xlink:href="#linear-gradient-26"/>
    <linearGradient id="linear-gradient-28" x1="3.088" y1="1.345" x2="0.616" y2="0.582" xlink:href="#linear-gradient-22"/>
    <linearGradient id="linear-gradient-29" x1="-109.639" y1="-3.524" x2="-115.376" y2="3.756" gradientUnits="objectBoundingBox">
      <stop offset="0" stop-color="#cb236d"/>
      <stop offset="1" stop-color="#4c246d"/>
    </linearGradient>
    <linearGradient id="linear-gradient-30" x1="-0.125" y1="-1.058" x2="1.981" y2="3.849" xlink:href="#linear-gradient-12"/>
    <linearGradient id="linear-gradient-31" x1="-33.221" y1="0.486" x2="-33.001" y2="-0.519" xlink:href="#linear-gradient-26"/>
    <linearGradient id="linear-gradient-32" x1="-22.661" y1="-0.379" x2="-23.713" y2="0.372" xlink:href="#linear-gradient-26"/>
    <linearGradient id="linear-gradient-33" x1="-0.098" y1="0.38" x2="2.001" y2="0.905" xlink:href="#linear-gradient-22"/>
    <linearGradient id="linear-gradient-34" x1="-96.558" y1="-3.424" x2="-100.879" y2="-0.843" xlink:href="#linear-gradient-26"/>
    <linearGradient id="linear-gradient-35" x1="2.275" y1="6.789" x2="1.053" y2="10.008" xlink:href="#linear-gradient-10"/>
    <linearGradient id="linear-gradient-36" x1="0.074" y1="-0.378" x2="0.807" y2="1.194" xlink:href="#linear-gradient-10"/>
    <linearGradient id="linear-gradient-37" x1="-0.269" y1="-2.098" x2="2.525" y2="7.338" xlink:href="#linear-gradient-10"/>
    <linearGradient id="linear-gradient-38" x1="-0.698" y1="-0.996" x2="2.189" y2="2.626" xlink:href="#linear-gradient-12"/>
    <linearGradient id="linear-gradient-39" x1="0.031" y1="0.767" x2="1.654" y2="-0.248" xlink:href="#linear-gradient-26"/>
  </defs>
  <g id="UserInfo" transform="translate(1694.352 956.346)">
    <g id="Illustration" transform="translate(-1694.352 -956.346)">
      <g id="Group_153" data-name="Group 153" transform="translate(0 0)">
        <path id="Path_762" data-name="Path 762" d="M570.971,528.19c-108.793,114.807-275.9,80.844-300.6,75.386-31.119-6.876-105.157-23.235-160.408-87.827C25.37,416.86,33.912,262.311,99.238,158.116,118.246,127.8,182.215,37.7,302.344,18.109c7.021-1.145,132.462-19.537,233.391,65.148a276.393,276.393,0,0,1,54.826,62.206C650.281,238.865,678.543,414.669,570.971,528.19Z" transform="translate(-41.74 -15.654)" fill="url(#linear-gradient)"/>
        <g id="Group_118" data-name="Group 118" transform="translate(202.676 22.762)">
          <path id="Path_763" data-name="Path 763" d="M1046.892,129.129a10.1,10.1,0,0,1,13.282-7.492c38.37,13.681,170.706,58.874,284.822,73.922a9.337,9.337,0,0,1,8.023,10.69l-66.389,425.94a10.744,10.744,0,0,1-12.207,8.975c-47.82-7.159-244.611-37.349-312.46-59.238a8.512,8.512,0,0,1-5.716-9.814Z" transform="translate(-956.073 -121.046)" fill="#91b3fa"/>
          <path id="Path_764" data-name="Path 764" d="M1070.547,183.647a9.716,9.716,0,0,1,12.782-7.21c36.925,13.166,164.277,56.657,274.1,71.138a8.985,8.985,0,0,1,7.72,10.287l-63.888,409.9a10.34,10.34,0,0,1-11.748,8.636c-46.02-6.889-235.4-35.943-300.693-57.008a8.192,8.192,0,0,1-5.5-9.444Z" transform="translate(-977.301 -164.028)" fill="#fff" opacity="0.6"/>
          <path id="Path_765" data-name="Path 765" d="M1475.509,367.766a6,6,0,0,0-7.368,4.863l-14.279,87.756a5.645,5.645,0,0,0,4.251,6.4c16,3.846,65.894,15.639,94.522,20.131a6.3,6.3,0,0,0,7.1-4.733c3.975-16.184,15.154-63.371,15.62-83.984a7.116,7.116,0,0,0-5.416-7.057Z" transform="translate(-1346.294 -314.341)" fill="#fff" opacity="0.78"/>
          <circle id="Ellipse_18" data-name="Ellipse 18" cx="19.092" cy="19.092" r="19.092" transform="translate(150.949 81.803)" fill="url(#linear-gradient-2)"/>
          <path id="Path_766" data-name="Path 766" d="M1544.279,739.614l59.518,12.544a4.71,4.71,0,0,0,5.368-6.288c-3.388-8.976-11.516-22.827-29.945-26.163-17.762-3.216-30.439,5.076-37.286,11.5A4.922,4.922,0,0,0,1544.279,739.614Z" transform="translate(-1414.176 -589.849)" fill="url(#linear-gradient-3)"/>
          <g id="Group_106" data-name="Group 106" transform="translate(252.45 86.156)" opacity="0.6">
            <path id="Path_767" data-name="Path 767" d="M2230.765,549.821a3.146,3.146,0,0,0,3.918-2.219,3.448,3.448,0,0,0-2.846-3.708L2127.909,520.05a2.251,2.251,0,0,0-2.924,2.659l.2,1.522a5.252,5.252,0,0,0,3.841,4.148Z" transform="translate(-2124.955 -519.964)" fill="#fff"/>
          </g>
          <g id="Group_107" data-name="Group 107" transform="translate(249.035 102.357)" opacity="0.6">
            <path id="Path_768" data-name="Path 768" d="M2112.1,595.063a2.251,2.251,0,0,0-2.924,2.659l.2,1.523a5.253,5.253,0,0,0,3.841,4.148l101.738,21.442a3.147,3.147,0,0,0,3.919-2.219,3.449,3.449,0,0,0-2.847-3.708Z" transform="translate(-2109.143 -594.977)" fill="#fff"/>
          </g>
          <g id="Group_108" data-name="Group 108" transform="translate(245.57 118.794)" opacity="0.6">
            <path id="Path_769" data-name="Path 769" d="M2096.057,671.167a2.251,2.251,0,0,0-2.924,2.659l.2,1.523a5.252,5.252,0,0,0,3.841,4.148l101.738,21.442a3.147,3.147,0,0,0,3.918-2.219,3.448,3.448,0,0,0-2.846-3.708Z" transform="translate(-2093.103 -671.081)" fill="#fff"/>
          </g>
          <g id="Group_109" data-name="Group 109" transform="translate(99.501 170.594)" opacity="0.6">
            <path id="Path_770" data-name="Path 770" d="M1662.087,970.383a3.012,3.012,0,0,0,3.811-2.242,3.565,3.565,0,0,0-2.961-3.7L1418.948,911.01c-1.861-.408-2.685.652-1.831,2.355l1.468,2.929a8.156,8.156,0,0,0,4.942,3.81Z" transform="translate(-1416.78 -910.923)" fill="#fff"/>
          </g>
          <g id="Group_110" data-name="Group 110" transform="translate(96.087 186.795)" opacity="0.6">
            <path id="Path_771" data-name="Path 771" d="M1403.138,986.024c-1.861-.408-2.685.652-1.831,2.355l1.468,2.929a8.154,8.154,0,0,0,4.941,3.81l238.557,50.278a3.013,3.013,0,0,0,3.811-2.242,3.565,3.565,0,0,0-2.962-3.7Z" transform="translate(-1400.97 -985.937)" fill="#fff"/>
          </g>
          <path id="Path_772" data-name="Path 772" d="M1354.133,1110.385c5.971.788,17.019,2.9,23.094,4.09a5.61,5.61,0,0,1,4.535,5.34,91.452,91.452,0,0,1-2.1,22.722,4.982,4.982,0,0,1-5.925,3.736l-22.3-4.952a5.486,5.486,0,0,1-4.261-5.982l2.467-21.443A4,4,0,0,1,1354.133,1110.385Z" transform="translate(-1262.681 -896.685)" fill="#fff" opacity="0.6"/>
          <g id="Group_111" data-name="Group 111" transform="translate(127.185 230.943)" opacity="0.6">
            <path id="Path_773" data-name="Path 773" d="M1548.745,1190.453a2.756,2.756,0,0,0-3.559,2.6l-.218,3.719a4.161,4.161,0,0,0,3.186,4.172l54.288,11.442a3.422,3.422,0,0,0,4.061-2.684l.182-.919a3.709,3.709,0,0,0-2.684-4.253Z" transform="translate(-1544.962 -1190.349)" fill="#fff"/>
          </g>
          <path id="Path_774" data-name="Path 774" d="M1917.972,1229.223c5.971.788,17.019,2.9,23.094,4.09a5.61,5.61,0,0,1,4.535,5.34,91.449,91.449,0,0,1-2.1,22.722,4.981,4.981,0,0,1-5.925,3.736l-22.3-4.952a5.486,5.486,0,0,1-4.261-5.982l2.467-21.443A4,4,0,0,1,1917.972,1229.223Z" transform="translate(-1704.745 -989.857)" fill="#fff" opacity="0.6"/>
          <g id="Group_112" data-name="Group 112" transform="translate(248.961 256.609)" opacity="0.6">
            <path id="Path_775" data-name="Path 775" d="M2112.584,1309.293a2.756,2.756,0,0,0-3.559,2.6l-.219,3.718a4.161,4.161,0,0,0,3.186,4.172l54.288,11.442a3.422,3.422,0,0,0,4.061-2.683l.182-.919a3.709,3.709,0,0,0-2.685-4.253Z" transform="translate(-2108.801 -1309.189)" fill="#fff"/>
          </g>
          <g id="Group_117" data-name="Group 117" transform="translate(52.122 268.594)">
            <path id="Path_776" data-name="Path 776" d="M1352.16,1412.388l-.056-.012-20.585-4.545a5.666,5.666,0,0,1-4.665-5.909l1.834-17.688a3.842,3.842,0,0,1,1.484-2.641,4.63,4.63,0,0,1,3.484-.892h0c1.762.248,4.254.555,6.891.881,5.553.685,12.465,1.538,16.295,2.3a5.891,5.891,0,0,1,4.924,5.257c.238,4.2-1.442,11.7-3.335,19.667A5.209,5.209,0,0,1,1352.16,1412.388Zm-18.727-30.083a3,3,0,0,0-2.262.564,2.236,2.236,0,0,0-.872,1.532l-1.834,17.688a4.055,4.055,0,0,0,3.4,4.162l20.585,4.545.042.009a3.591,3.591,0,0,0,4.364-2.377c1.864-7.848,3.518-15.221,3.293-19.2a4.349,4.349,0,0,0-3.622-3.76c-3.773-.746-10.652-1.595-16.179-2.277-2.644-.326-5.142-.635-6.918-.884Z" transform="translate(-1298.876 -1377.203)" fill="#fff"/>
            <path id="Path_777" data-name="Path 777" d="M1348.8,1398.613c4.4.617,14.015,1.646,18.493,2.532a4.081,4.081,0,0,1,3.415,3.6c.19,3.369-1.263,9.7-2.648,15.531a3.507,3.507,0,0,1-4.289,2.375l-16.45-3.632A3.891,3.891,0,0,1,1344.1,1415l1.466-14.135A2.738,2.738,0,0,1,1348.8,1398.613Z" transform="translate(-1312.404 -1391.259)" fill="#fff" opacity="0.6"/>
            <g id="Group_113" data-name="Group 113" transform="translate(73.816 22.013)" opacity="0.6">
              <path id="Path_778" data-name="Path 778" d="M1539.2,1472.1a5.234,5.234,0,0,0,4.192,4.868l191.187,38.595a3.958,3.958,0,0,0,1.617-7.749l-190.666-41.094A5.235,5.235,0,0,0,1539.2,1472.1Z" transform="translate(-1539.188 -1466.601)" fill="#fff"/>
            </g>
            <path id="Path_779" data-name="Path 779" d="M1358.974,1374.932h0a3.236,3.236,0,0,1,4.117,2.109l2.531,8.15a1.039,1.039,0,0,0,1.832.3l14.826-20.339a1.151,1.151,0,0,1,2.051.94,45.327,45.327,0,0,1-19.411,28.147s-5.555-3.627-8.173-15.354A3.391,3.391,0,0,1,1358.974,1374.932Z" transform="translate(-1322.269 -1364.677)" fill="url(#linear-gradient-4)"/>
            <path id="Path_780" data-name="Path 780" d="M1309.02,1617.078l-.057-.012-20.584-4.545a5.667,5.667,0,0,1-4.665-5.908l1.834-17.688a3.844,3.844,0,0,1,1.484-2.641,4.63,4.63,0,0,1,3.484-.892h0c1.762.248,4.254.555,6.891.881,5.553.685,12.465,1.538,16.295,2.3l.083.017a5.878,5.878,0,0,1,4.841,5.241c.238,4.2-1.442,11.7-3.335,19.668A5.209,5.209,0,0,1,1309.02,1617.078Zm-18.727-30.085a3,3,0,0,0-2.262.564,2.235,2.235,0,0,0-.872,1.533l-1.834,17.688a4.055,4.055,0,0,0,3.4,4.162l20.584,4.545.042.009a3.592,3.592,0,0,0,4.364-2.377c1.864-7.848,3.519-15.221,3.293-19.2a4.326,4.326,0,0,0-3.622-3.76c-3.772-.746-10.651-1.595-16.179-2.277-2.644-.324-5.143-.633-6.918-.884Z" transform="translate(-1265.053 -1537.685)" fill="#fff"/>
            <path id="Path_781" data-name="Path 781" d="M1305.663,1603.3c4.4.617,14.015,1.646,18.493,2.532a4.08,4.08,0,0,1,3.414,3.6c.191,3.369-1.263,9.7-2.648,15.531a3.507,3.507,0,0,1-4.289,2.375l-16.45-3.632a3.892,3.892,0,0,1-3.224-4.023l1.466-14.135A2.737,2.737,0,0,1,1305.663,1603.3Z" transform="translate(-1278.581 -1551.741)" fill="#fff" opacity="0.6"/>
            <g id="Group_114" data-name="Group 114" transform="translate(64.499 66.22)" opacity="0.6">
              <path id="Path_782" data-name="Path 782" d="M1496.055,1676.787a5.235,5.235,0,0,0,4.192,4.868l191.187,38.595a3.958,3.958,0,0,0,1.618-7.748l-190.666-41.094A5.234,5.234,0,0,0,1496.055,1676.787Z" transform="translate(-1496.048 -1671.288)" fill="#fff"/>
            </g>
            <path id="Path_783" data-name="Path 783" d="M1315.835,1579.612h0a3.236,3.236,0,0,1,4.117,2.109l2.531,8.15a1.039,1.039,0,0,0,1.832.3l14.825-20.339a1.151,1.151,0,0,1,2.052.94,45.327,45.327,0,0,1-19.411,28.147s-5.555-3.627-8.172-15.354A3.393,3.393,0,0,1,1315.835,1579.612Z" transform="translate(-1288.447 -1525.151)" fill="url(#linear-gradient-5)"/>
            <path id="Path_784" data-name="Path 784" d="M1265.88,1821.769l-.057-.012-20.585-4.545a5.664,5.664,0,0,1-4.665-5.908l1.834-17.688a3.844,3.844,0,0,1,1.485-2.642,4.63,4.63,0,0,1,3.484-.892h0c1.762.248,4.254.555,6.891.881,5.553.685,12.465,1.538,16.295,2.3l.083.017a5.878,5.878,0,0,1,4.841,5.24c.237,4.2-1.442,11.7-3.335,19.668A5.209,5.209,0,0,1,1265.88,1821.769Zm-18.727-30.085a3,3,0,0,0-2.262.563,2.238,2.238,0,0,0-.872,1.534l-1.834,17.688a4.054,4.054,0,0,0,3.4,4.161l20.585,4.545.041.009a3.591,3.591,0,0,0,4.364-2.377c1.864-7.848,3.519-15.221,3.294-19.2a4.318,4.318,0,0,0-3.622-3.76c-3.773-.746-10.652-1.595-16.179-2.277-2.644-.324-5.143-.633-6.918-.884Z" transform="translate(-1231.231 -1698.168)" fill="#fff"/>
            <path id="Path_785" data-name="Path 785" d="M1262.523,1807.993c4.4.617,14.015,1.646,18.493,2.531a4.081,4.081,0,0,1,3.415,3.6c.19,3.369-1.263,9.7-2.649,15.531a3.506,3.506,0,0,1-4.289,2.375l-16.45-3.632a3.892,3.892,0,0,1-3.224-4.023l1.466-14.135A2.737,2.737,0,0,1,1262.523,1807.993Z" transform="translate(-1244.758 -1712.223)" fill="#fff" opacity="0.6"/>
            <g id="Group_115" data-name="Group 115" transform="translate(55.182 110.429)" opacity="0.6">
              <path id="Path_786" data-name="Path 786" d="M1452.915,1881.479a5.235,5.235,0,0,0,4.192,4.868l191.187,38.595a3.958,3.958,0,0,0,1.617-7.749L1459.245,1876.1A5.235,5.235,0,0,0,1452.915,1881.479Z" transform="translate(-1452.908 -1875.98)" fill="#fff"/>
            </g>
            <path id="Path_787" data-name="Path 787" d="M1272.7,1784.3h0a3.235,3.235,0,0,1,4.117,2.108l2.531,8.15a1.039,1.039,0,0,0,1.832.3L1296,1774.527a1.151,1.151,0,0,1,2.051.94,45.327,45.327,0,0,1-19.411,28.147s-5.555-3.627-8.172-15.354A3.4,3.4,0,0,1,1272.7,1784.3Z" transform="translate(-1254.626 -1685.634)" fill="url(#linear-gradient-6)"/>
            <path id="Path_788" data-name="Path 788" d="M1222.739,2026.459l-.056-.012L1202.1,2021.9a5.665,5.665,0,0,1-4.665-5.908l1.834-17.688a3.844,3.844,0,0,1,1.485-2.642,4.628,4.628,0,0,1,3.484-.892h0c1.763.248,4.254.555,6.891.88,5.553.685,12.465,1.538,16.295,2.3l.083.017a5.879,5.879,0,0,1,4.841,5.241c.237,4.2-1.442,11.7-3.335,19.668A5.21,5.21,0,0,1,1222.739,2026.459Zm-18.727-30.085a3,3,0,0,0-2.262.564,2.236,2.236,0,0,0-.872,1.533l-1.834,17.688a4.053,4.053,0,0,0,3.4,4.161l20.585,4.545.041.009a3.592,3.592,0,0,0,4.364-2.376c1.864-7.848,3.518-15.221,3.294-19.2a4.312,4.312,0,0,0-3.622-3.76c-3.773-.746-10.652-1.595-16.179-2.277-2.644-.326-5.143-.633-6.918-.884Z" transform="translate(-1197.407 -1858.65)" fill="#fff"/>
            <path id="Path_789" data-name="Path 789" d="M1219.383,2012.683c4.4.617,14.015,1.646,18.493,2.531a4.081,4.081,0,0,1,3.415,3.6c.19,3.369-1.263,9.7-2.648,15.531a3.507,3.507,0,0,1-4.289,2.375l-16.45-3.632a3.892,3.892,0,0,1-3.224-4.023l1.466-14.135A2.735,2.735,0,0,1,1219.383,2012.683Z" transform="translate(-1210.936 -1872.705)" fill="#fff" opacity="0.6"/>
            <g id="Group_116" data-name="Group 116" transform="translate(45.865 154.636)" opacity="0.6">
              <path id="Path_790" data-name="Path 790" d="M1409.775,2086.167h0a5.233,5.233,0,0,0,4.192,4.868l191.188,38.595a3.958,3.958,0,0,0,1.617-7.749l-190.666-41.093A5.234,5.234,0,0,0,1409.775,2086.167Z" transform="translate(-1409.768 -2080.668)" fill="#fff"/>
            </g>
            <path id="Path_791" data-name="Path 791" d="M1229.556,1988.993h0a3.235,3.235,0,0,1,4.116,2.109l2.531,8.15a1.039,1.039,0,0,0,1.832.3l14.825-20.339a1.151,1.151,0,0,1,2.051.94A45.328,45.328,0,0,1,1235.5,2008.3s-5.555-3.627-8.173-15.354A3.4,3.4,0,0,1,1229.556,1988.993Z" transform="translate(-1220.802 -1846.116)" fill="url(#linear-gradient-7)"/>
          </g>
        </g>
        <g id="Group_131" data-name="Group 131" transform="translate(5.652 30.605)">
          <path id="Path_792" data-name="Path 792" d="M44.036,215.055a10.1,10.1,0,0,1,9.218-12.148c40.648-2.67,180.052-13.708,290.769-45.185a9.336,9.336,0,0,1,11.606,6.628l108.1,417.307a10.744,10.744,0,0,1-7.643,13.082c-46.735,12.407-239.346,62.8-310.309,69.631a8.512,8.512,0,0,1-9.141-6.74Z" transform="translate(-43.818 -157.361)" fill="#91b3fa"/>
          <path id="Path_793" data-name="Path 793" d="M75.582,267.508a9.716,9.716,0,0,1,8.871-11.691c39.118-2.569,173.272-13.192,279.82-43.484a8.985,8.985,0,0,1,11.169,6.379L479.475,620.3a10.34,10.34,0,0,1-7.355,12.59C427.146,644.833,241.787,693.325,173.5,699.9a8.191,8.191,0,0,1-8.8-6.486Z" transform="translate(-68.558 -200.188)" fill="#fff" opacity="0.6"/>
          <path id="Path_794" data-name="Path 794" d="M268.285,495.513l21.721,86.216a5.646,5.646,0,0,0,6.442,4.188c16.212-2.819,66.689-11.8,94.75-19.035a6.305,6.305,0,0,0,4.639-7.162c-2.774-16.432-11.24-64.181-18.993-83.286a7.116,7.116,0,0,0-7.772-4.328l-95.953,16.019A6,6,0,0,0,268.285,495.513Z" transform="translate(-219.662 -404.051)" fill="#fff" opacity="0.78"/>
          <circle id="Ellipse_19" data-name="Ellipse 19" cx="19.092" cy="19.092" r="19.092" transform="translate(90.675 92.352)" fill="#91b3fa"/>
          <path id="Path_795" data-name="Path 795" d="M450.682,833.929l59.609-12.107a4.71,4.71,0,0,0,2.431-7.9c-6.672-6.894-19.63-16.382-37.869-12.13-17.579,4.1-25.924,16.74-29.662,25.35A4.922,4.922,0,0,0,450.682,833.929Z" transform="translate(-358.177 -661.779)" fill="#91b3fa"/>
          <g id="Group_119" data-name="Group 119" transform="translate(180.243 44.691)" opacity="0.6">
            <path id="Path_796" data-name="Path 796" d="M986.661,370.22a3.147,3.147,0,0,0,2.716-3.592,3.449,3.449,0,0,0-4.084-2.274L880.436,383.713a2.251,2.251,0,0,0-1.628,3.6l.788,1.318a5.253,5.253,0,0,0,5.172,2.283Z" transform="translate(-878.374 -364.287)" fill="#fff"/>
          </g>
          <g id="Group_120" data-name="Group 120" transform="translate(183.539 60.917)" opacity="0.6">
            <path id="Path_797" data-name="Path 797" d="M895.694,458.84a2.251,2.251,0,0,0-1.628,3.6l.788,1.318a5.253,5.253,0,0,0,5.172,2.283l101.892-20.7a3.146,3.146,0,0,0,2.716-3.592,3.449,3.449,0,0,0-4.084-2.274Z" transform="translate(-893.633 -439.415)" fill="#fff"/>
          </g>
          <g id="Group_121" data-name="Group 121" transform="translate(186.882 77.378)" opacity="0.6">
            <path id="Path_798" data-name="Path 798" d="M911.175,535.06a2.251,2.251,0,0,0-1.628,3.6l.788,1.318a5.252,5.252,0,0,0,5.172,2.283l101.892-20.7a3.147,3.147,0,0,0,2.716-3.592,3.449,3.449,0,0,0-4.084-2.274Z" transform="translate(-909.114 -515.634)" fill="#fff"/>
          </g>
          <g id="Group_122" data-name="Group 122" transform="translate(73.054 154.773)" opacity="0.6">
            <path id="Path_799" data-name="Path 799" d="M630.456,879.847a3.012,3.012,0,0,0,2.608-3.57,3.564,3.564,0,0,0-4.185-2.218L383.723,921.844c-1.87.364-2.205,1.664-.746,2.888l2.51,2.106a8.156,8.156,0,0,0,6.048,1.536Z" transform="translate(-382.069 -873.984)" fill="#fff"/>
          </g>
          <g id="Group_123" data-name="Group 123" transform="translate(76.349 170.999)" opacity="0.6">
            <path id="Path_800" data-name="Path 800" d="M398.982,996.972c-1.87.365-2.205,1.664-.746,2.888l2.51,2.105a8.156,8.156,0,0,0,6.048,1.537l238.921-48.527a3.012,3.012,0,0,0,2.608-3.57,3.564,3.564,0,0,0-4.185-2.218Z" transform="translate(-397.328 -949.112)" fill="#fff"/>
          </g>
          <path id="Path_801" data-name="Path 801" d="M414.828,1277.078c5.794-1.646,16.772-4.094,22.821-5.411a5.61,5.61,0,0,1,6.282,3.1,91.441,91.441,0,0,1,7.094,21.687,4.982,4.982,0,0,1-3.956,5.781l-22.436,4.306a5.486,5.486,0,0,1-6.285-3.8l-6.246-20.661A4,4,0,0,1,414.828,1277.078Z" transform="translate(-332.427 -1030.903)" fill="#fff" opacity="0.6"/>
          <g id="Group_124" data-name="Group 124" transform="translate(123.124 237.362)" opacity="0.6">
            <path id="Path_802" data-name="Path 802" d="M616.336,1265.436a2.756,2.756,0,0,0-2.234,3.8l1.275,3.5a4.161,4.161,0,0,0,4.58,2.565l54.371-11.043a3.422,3.422,0,0,0,2.663-4.075l-.2-.916a3.709,3.709,0,0,0-4.152-2.838Z" transform="translate(-613.903 -1256.386)" fill="#fff"/>
          </g>
          <path id="Path_803" data-name="Path 803" d="M979.53,1162.378c5.793-1.646,16.772-4.094,22.821-5.411a5.61,5.61,0,0,1,6.282,3.1,91.446,91.446,0,0,1,7.094,21.687,4.982,4.982,0,0,1-3.955,5.781l-22.436,4.306a5.486,5.486,0,0,1-6.285-3.8l-6.246-20.661A4,4,0,0,1,979.53,1162.378Z" transform="translate(-775.167 -940.975)" fill="#fff" opacity="0.6"/>
          <g id="Group_125" data-name="Group 125" transform="translate(245.086 212.592)" opacity="0.6">
            <path id="Path_804" data-name="Path 804" d="M1181.037,1150.746a2.756,2.756,0,0,0-2.234,3.8l1.275,3.5a4.161,4.161,0,0,0,4.58,2.565l54.37-11.043a3.422,3.422,0,0,0,2.663-4.075l-.2-.916a3.709,3.709,0,0,0-4.152-2.838Z" transform="translate(-1178.604 -1141.696)" fill="#fff"/>
          </g>
          <g id="Group_130" data-name="Group 130" transform="translate(98.068 262.647)">
            <path id="Path_805" data-name="Path 805" d="M530.78,1552.089l-.057.011-20.7,4a5.666,5.666,0,0,1-6.627-3.572l-5.336-16.964a3.843,3.843,0,0,1,.314-3.013,4.629,4.629,0,0,1,2.844-2.2h0c1.716-.472,4.125-1.179,6.674-1.927,5.369-1.575,12.052-3.535,15.868-4.36a5.891,5.891,0,0,1,6.606,2.871c1.884,3.76,3.32,11.311,4.744,19.376A5.209,5.209,0,0,1,530.78,1552.089Zm-29.129-20.181a3,3,0,0,0-1.852,1.415,2.236,2.236,0,0,0-.192,1.753l5.336,16.964a4.055,4.055,0,0,0,4.776,2.469l20.7-4,.041-.008a3.591,3.591,0,0,0,3.062-3.913c-1.4-7.942-2.811-15.367-4.6-18.933a4.349,4.349,0,0,0-4.817-2.014c-3.759.813-10.41,2.763-15.754,4.331-2.556.749-4.972,1.457-6.7,1.934Z" transform="translate(-497.888 -1491.419)" fill="#fff"/>
            <path id="Path_806" data-name="Path 806" d="M519.338,1548.529c4.279-1.178,13.517-4.052,17.979-5.016a4.081,4.081,0,0,1,4.564,1.952c1.512,3.017,2.69,9.4,3.733,15.307a3.507,3.507,0,0,1-2.994,3.882l-16.54,3.194a3.892,3.892,0,0,1-4.556-2.413l-4.265-13.556A2.736,2.736,0,0,1,519.338,1548.529Z" transform="translate(-512.99 -1506.703)" fill="#fff" opacity="0.6"/>
            <g id="Group_126" data-name="Group 126" transform="translate(48.155)" opacity="0.6">
              <path id="Path_807" data-name="Path 807" d="M721.4,1418.934a5.234,5.234,0,0,0,5.779,2.8l190.8-40.451a3.958,3.958,0,0,0-1.591-7.754l-191.317,37.95A5.234,5.234,0,0,0,721.4,1418.934Z" transform="translate(-720.853 -1373.457)" fill="#fff"/>
            </g>
            <path id="Path_808" data-name="Path 808" d="M572.418,1757.069l-.057.011-20.7,4a5.666,5.666,0,0,1-6.627-3.572l-5.336-16.964a3.842,3.842,0,0,1,.314-3.013,4.63,4.63,0,0,1,2.844-2.2h0c1.716-.472,4.125-1.179,6.674-1.927,5.369-1.575,12.052-3.535,15.868-4.36l.083-.018a5.879,5.879,0,0,1,6.523,2.889c1.884,3.76,3.32,11.311,4.744,19.376A5.21,5.21,0,0,1,572.418,1757.069Zm-29.129-20.181a3,3,0,0,0-1.852,1.415,2.236,2.236,0,0,0-.192,1.753l5.336,16.964a4.056,4.056,0,0,0,4.776,2.469l20.7-4,.042-.008a3.592,3.592,0,0,0,3.062-3.913c-1.4-7.943-2.811-15.367-4.6-18.933a4.325,4.325,0,0,0-4.817-2.013c-3.759.812-10.41,2.763-15.754,4.331-2.556.748-4.972,1.457-6.7,1.934Z" transform="translate(-530.533 -1652.124)" fill="#fff"/>
            <path id="Path_809" data-name="Path 809" d="M560.975,1753.529c4.279-1.178,13.517-4.051,17.979-5.016a4.081,4.081,0,0,1,4.564,1.952c1.512,3.017,2.69,9.4,3.733,15.307a3.507,3.507,0,0,1-2.994,3.882l-16.54,3.195a3.892,3.892,0,0,1-4.556-2.413l-4.265-13.556A2.736,2.736,0,0,1,560.975,1753.529Z" transform="translate(-545.634 -1667.428)" fill="#fff" opacity="0.6"/>
            <g id="Group_127" data-name="Group 127" transform="translate(57.147 44.275)" opacity="0.6">
              <path id="Path_810" data-name="Path 810" d="M763.033,1623.934a5.234,5.234,0,0,0,5.779,2.8l190.8-40.45a3.958,3.958,0,0,0-1.591-7.754l-191.317,37.95A5.234,5.234,0,0,0,763.033,1623.934Z" transform="translate(-762.489 -1578.458)" fill="#fff"/>
            </g>
            <path id="Path_811" data-name="Path 811" d="M614.054,1962.069l-.057.011-20.7,4a5.665,5.665,0,0,1-6.627-3.571l-5.336-16.964a3.843,3.843,0,0,1,.314-3.014,4.627,4.627,0,0,1,2.844-2.2h0c1.716-.472,4.125-1.179,6.675-1.927,5.369-1.575,12.052-3.535,15.868-4.36l.083-.018a5.878,5.878,0,0,1,6.523,2.889c1.884,3.76,3.32,11.311,4.744,19.376A5.21,5.21,0,0,1,614.054,1962.069Zm-29.129-20.181a3,3,0,0,0-1.852,1.415,2.238,2.238,0,0,0-.192,1.754l5.336,16.964a4.054,4.054,0,0,0,4.775,2.468l20.7-4,.041-.008a3.591,3.591,0,0,0,3.062-3.913c-1.4-7.943-2.811-15.367-4.6-18.933a4.318,4.318,0,0,0-4.817-2.014c-3.759.813-10.41,2.763-15.754,4.331-2.557.749-4.972,1.457-6.7,1.934Z" transform="translate(-563.178 -1812.849)" fill="#fff"/>
            <path id="Path_812" data-name="Path 812" d="M602.612,1958.529c4.279-1.178,13.517-4.052,17.979-5.016a4.081,4.081,0,0,1,4.564,1.952c1.512,3.017,2.69,9.4,3.733,15.307a3.507,3.507,0,0,1-2.994,3.882l-16.54,3.194a3.892,3.892,0,0,1-4.556-2.414l-4.264-13.556A2.736,2.736,0,0,1,602.612,1958.529Z" transform="translate(-578.279 -1828.153)" fill="#fff" opacity="0.6"/>
            <g id="Group_128" data-name="Group 128" transform="translate(66.14 88.55)" opacity="0.6">
              <path id="Path_813" data-name="Path 813" d="M804.67,1828.934a5.235,5.235,0,0,0,5.78,2.8l190.8-40.451a3.958,3.958,0,0,0-1.591-7.754l-191.316,37.95A5.234,5.234,0,0,0,804.67,1828.934Z" transform="translate(-804.127 -1783.458)" fill="#fff"/>
            </g>
            <path id="Path_814" data-name="Path 814" d="M655.691,2167.069l-.057.011-20.7,4a5.665,5.665,0,0,1-6.626-3.571l-5.336-16.964a3.843,3.843,0,0,1,.314-3.014,4.629,4.629,0,0,1,2.844-2.2h0c1.716-.472,4.125-1.179,6.675-1.927,5.369-1.575,12.051-3.535,15.868-4.36l.083-.018a5.879,5.879,0,0,1,6.523,2.889c1.884,3.76,3.32,11.311,4.744,19.376A5.21,5.21,0,0,1,655.691,2167.069Zm-29.129-20.181a3,3,0,0,0-1.852,1.415,2.237,2.237,0,0,0-.192,1.753l5.336,16.964a4.053,4.053,0,0,0,4.775,2.468l20.7-4,.042-.008a3.591,3.591,0,0,0,3.062-3.914c-1.4-7.942-2.811-15.366-4.6-18.933a4.312,4.312,0,0,0-4.817-2.014c-3.759.813-10.41,2.764-15.754,4.331-2.556.749-4.972,1.457-6.7,1.934Z" transform="translate(-595.822 -1973.574)" fill="#fff"/>
            <path id="Path_815" data-name="Path 815" d="M644.249,2163.529c4.28-1.178,13.517-4.052,17.979-5.016a4.08,4.08,0,0,1,4.564,1.952c1.512,3.017,2.69,9.4,3.733,15.306a3.507,3.507,0,0,1-2.994,3.882l-16.54,3.195a3.892,3.892,0,0,1-4.556-2.414l-4.264-13.556A2.736,2.736,0,0,1,644.249,2163.529Z" transform="translate(-610.923 -1988.878)" fill="#fff" opacity="0.6"/>
            <g id="Group_129" data-name="Group 129" transform="translate(75.132 132.825)" opacity="0.6">
              <path id="Path_816" data-name="Path 816" d="M846.307,2033.934h0a5.234,5.234,0,0,0,5.78,2.8l190.8-40.451a3.958,3.958,0,0,0-1.591-7.754l-191.316,37.95A5.234,5.234,0,0,0,846.307,2033.934Z" transform="translate(-845.764 -1988.458)" fill="#fff"/>
            </g>
            <path id="Path_817" data-name="Path 817" d="M654.747,2124.471h0a3.235,3.235,0,0,1,4.615.3l5.558,6.477a1.039,1.039,0,0,0,1.8-.448l5.536-24.552a1.151,1.151,0,0,1,2.256.049,45.328,45.328,0,0,1-6.647,33.54s-6.538-1.125-13.595-10.849A3.394,3.394,0,0,1,654.747,2124.471Z" transform="translate(-619.99 -1947.281)" fill="url(#linear-gradient-8)"/>
          </g>
        </g>
        <g id="Group_134" data-name="Group 134" transform="translate(0 264.049)">
          <g id="Group_132" data-name="Group 132" transform="translate(12.652)">
            <path id="Path_818" data-name="Path 818" d="M193.2,1423.54a552.508,552.508,0,0,0,11.689,68.817h3.357a375.515,375.515,0,0,1-11.4-107.917c1.89-43.514,12.547-96.348-7.326-121.586-16.539-21-86.722-24.145-109.8-24.608a3.405,3.405,0,0,0-2.74,5.522c8.848,11.133,27.375,36.915,28.989,59.429,2.128,29.675,25.19,52.966,48.107,62.662S189.328,1382.95,193.2,1423.54Z" transform="translate(-76.228 -1238.245)" fill="#91b3fa"/>
            <path id="Path_819" data-name="Path 819" d="M223.674,1323.125a110.66,110.66,0,0,1,39.37,18.949,86.62,86.62,0,0,1,15.817,15.4,74.9,74.9,0,0,1,11.023,19.217l.982,2.6c.322.87.562,1.767.846,2.65.262.886.558,1.779.79,2.658l.7,2.637q1.414,5.271,2.759,10.562,2.685,10.581,5.035,21.244c3.142,14.214,5.845,28.522,7.668,42.99a.634.634,0,0,1-1.252.194l0-.019c-1.3-7.121-2.729-14.244-4.3-21.323q-2.3-10.634-4.855-21.211l-2.582-10.569-2.7-10.539q-1.346-5.271-2.782-10.518l-.707-2.626c-.235-.876-.517-1.707-.772-2.562s-.492-1.71-.8-2.545l-.928-2.5a74.338,74.338,0,0,0-10.448-18.536,82.221,82.221,0,0,0-7.07-8.035l-.941-.955-.978-.918c-.655-.609-1.294-1.236-1.962-1.832-1.353-1.173-2.692-2.365-4.108-3.466a110.977,110.977,0,0,0-18.088-11.692,115.406,115.406,0,0,0-19.962-8.271l-.032-.01a.509.509,0,0,1,.273-.979Z" transform="translate(-191.332 -1304.782)" fill="#fff" opacity="0.5"/>
          </g>
          <g id="Group_133" data-name="Group 133" transform="translate(0 138.849)">
            <path id="Path_820" data-name="Path 820" d="M147.929,1954.514c12,17.623,10.462,27.483,10.831,35.834.065,1.483.147,3.578.319,6.055h3.278a71.789,71.789,0,0,1-1.314-10.189c-1.167-23.066-6.371-62.433-26.262-85.983s-41.673-25.7-69.119-4.289c-22.872,17.84-37.14,26.844-45.507,28.517a3.162,3.162,0,0,0-2.121,4.61c5.366,9.883,20.539,32.583,46.014,30.985C96.544,1958.017,135.926,1936.892,147.929,1954.514Z" transform="translate(-17.648 -1881.14)" fill="#91b3fa"/>
            <path id="Path_821" data-name="Path 821" d="M282.43,2018.7a65.186,65.186,0,0,1,5.667-4.741c1.964-1.483,3.989-2.9,6.1-4.185a61.071,61.071,0,0,1,13.458-6.333,42.238,42.238,0,0,1,7.362-1.656,31.413,31.413,0,0,1,7.636-.029c.635.1,1.276.163,1.9.3s1.269.267,1.875.44l3.582,1.111,3.505,1.363,3.4,1.633a42.774,42.774,0,0,1,11.834,9.253,53.165,53.165,0,0,1,8.2,12.463l.816,1.67c.28.553.483,1.138.729,1.706.462,1.146.96,2.28,1.391,3.435l1.206,3.5c.427,1.157.7,2.36,1.044,3.54a128.927,128.927,0,0,1,3.11,14.371.494.494,0,0,1-.968.2l0-.016c-1.144-4.728-2.245-9.463-3.819-14.043-.714-2.314-1.619-4.553-2.461-6.812-.454-1.116-.971-2.2-1.452-3.3-.254-.545-.468-1.109-.755-1.636l-.837-1.592a54.128,54.128,0,0,0-8.12-11.712,41.642,41.642,0,0,0-11.211-8.555l-3.2-1.519-3.32-1.271-3.41-1.038c-.566-.161-1.122-.267-1.683-.4s-1.137-.186-1.7-.284a28.623,28.623,0,0,0-6.956-.017,39.787,39.787,0,0,0-6.923,1.405,66.463,66.463,0,0,0-13.18,5.615c-2.1,1.17-4.188,2.392-6.212,3.716s-4.01,2.725-5.91,4.2l-.013.009a.514.514,0,0,1-.668-.779Z" transform="translate(-225.12 -1975.534)" fill="#fff" opacity="0.5"/>
          </g>
        </g>
        <g id="Group_148" data-name="Group 148" transform="translate(130.957 37.322)">
          <path id="Path_822" data-name="Path 822" d="M624,503.833A32.7,32.7,0,0,1,656.7,471.138H934.734a28.8,28.8,0,0,1,28.768,27.34l20.523,403.1A21.242,21.242,0,0,1,963.2,923.9L644.53,929.69A20.163,20.163,0,0,1,624,909.531v-405.7Z" transform="translate(-624.001 -410.087)" fill="url(#linear-gradient-9)"/>
          <g id="Group_147" data-name="Group 147" transform="translate(22.779 57.696)">
            <path id="Path_823" data-name="Path 823" d="M729.472,465.161a9.5,9.5,0,0,1,10.772-9.472c37.969,5.149,168.533,21.073,276.483,12.787a8.781,8.781,0,0,1,9.457,8.282l21.52,404.9a10.106,10.106,0,0,1-9.494,10.628c-45.4,2.687-232.378,13.073-299.069,6.088a8.007,8.007,0,0,1-7.164-7.924Z" transform="translate(-729.472 -455.601)" fill="#91b3fa"/>
            <path id="Path_824" data-name="Path 824" d="M750.181,513.449a9.139,9.139,0,0,1,10.366-9.115c36.539,4.955,162.187,20.28,266.071,12.305a8.451,8.451,0,0,1,9.1,7.971l20.709,389.654a9.725,9.725,0,0,1-9.137,10.228c-43.692,2.586-223.627,12.581-287.808,5.859a7.7,7.7,0,0,1-6.894-7.625Z" transform="translate(-745.708 -493.742)" fill="#fff" opacity="0.6"/>
            <path id="Path_825" data-name="Path 825" d="M906.772,664.494l3.881,83.538a5.311,5.311,0,0,0,5.154,5.066c15.471.437,63.68,1.612,90.9.193a5.93,5.93,0,0,0,5.617-5.733c.519-15.666,1.655-61.265-1.915-80.326a6.693,6.693,0,0,0-6.354-5.445l-91.446-3.2A5.647,5.647,0,0,0,906.772,664.494Z" transform="translate(-868.475 -614.746)" fill="#fff" opacity="0.78"/>
            <circle id="Ellipse_20" data-name="Ellipse 20" cx="17.958" cy="17.958" r="17.958" transform="translate(72.958 61.657)" fill="url(#linear-gradient-10)"/>
            <path id="Path_826" data-name="Path 826" d="M1007.31,977.174h57.212a4.43,4.43,0,0,0,3.72-6.829c-4.859-7.6-15.027-18.775-32.635-18.271-16.971.486-27.03,10.577-32.087,17.813A4.628,4.628,0,0,0,1007.31,977.174Z" transform="translate(-943.669 -844.835)" fill="url(#linear-gradient-11)"/>
            <g id="Group_135" data-name="Group 135" transform="translate(164.291 49.57)" opacity="0.6">
              <path id="Path_827" data-name="Path 827" d="M1592.955,692.567a2.959,2.959,0,0,0,3.176-2.8,3.244,3.244,0,0,0-3.339-2.86l-100.277-1.787a2.117,2.117,0,0,0-2.175,3.015l.48,1.362a4.94,4.94,0,0,0,4.34,3.073h97.8Z" transform="translate(-1490.166 -685.116)" fill="#fff"/>
            </g>
            <g id="Group_136" data-name="Group 136" transform="translate(164.292 65.143)" opacity="0.6">
              <path id="Path_828" data-name="Path 828" d="M1492.522,757.225a2.117,2.117,0,0,0-2.175,3.015l.48,1.362a4.94,4.94,0,0,0,4.34,3.073h97.8a2.959,2.959,0,0,0,3.176-2.8,3.244,3.244,0,0,0-3.339-2.86Z" transform="translate(-1490.173 -757.224)" fill="#fff"/>
            </g>
            <g id="Group_137" data-name="Group 137" transform="translate(164.292 80.943)" opacity="0.6">
              <path id="Path_829" data-name="Path 829" d="M1492.522,830.38a2.117,2.117,0,0,0-2.175,3.015l.48,1.362a4.94,4.94,0,0,0,4.34,3.073h97.8a2.959,2.959,0,0,0,3.176-2.8,3.244,3.244,0,0,0-3.339-2.86Z" transform="translate(-1490.173 -830.379)" fill="#fff"/>
            </g>
            <g id="Group_138" data-name="Group 138" transform="translate(39.724 157.106)" opacity="0.6">
              <path id="Path_830" data-name="Path 830" d="M1150.5,1190.508a2.834,2.834,0,0,0,3.073-2.8,3.353,3.353,0,0,0-3.443-2.828L915.2,1183.026c-1.792-.014-2.344,1.121-1.229,2.523l1.92,2.411a7.671,7.671,0,0,0,5.287,2.549H1150.5Z" transform="translate(-913.399 -1183.026)" fill="#fff"/>
            </g>
            <g id="Group_139" data-name="Group 139" transform="translate(39.722 172.678)" opacity="0.6">
              <path id="Path_831" data-name="Path 831" d="M915.2,1255.13c-1.792-.014-2.344,1.121-1.229,2.523l1.92,2.411a7.671,7.671,0,0,0,5.287,2.548h229.315a2.834,2.834,0,0,0,3.073-2.8,3.353,3.353,0,0,0-3.443-2.828Z" transform="translate(-913.394 -1255.129)" fill="#fff"/>
            </g>
            <path id="Path_832" data-name="Path 832" d="M904.263,1372.933c5.648-.433,16.226-.634,22.049-.715a5.278,5.278,0,0,1,5.21,4.036A86.018,86.018,0,0,1,934,1397.572a4.686,4.686,0,0,1-4.729,4.588l-21.487-.231a5.16,5.16,0,0,1-5.082-4.679l-1.889-20.214A3.758,3.758,0,0,1,904.263,1372.933Z" transform="translate(-863.795 -1174.251)" fill="url(#linear-gradient-12)"/>
            <g id="Group_140" data-name="Group 140" transform="translate(77.395 206.979)" opacity="0.6">
              <path id="Path_833" data-name="Path 833" d="M1090.63,1413.95a2.593,2.593,0,0,0-2.771,3.086l.52,3.465a3.914,3.914,0,0,0,3.742,3.222h52.185a3.218,3.218,0,0,0,3.217-3.258l-.011-.881a3.489,3.489,0,0,0-3.3-3.394Z" transform="translate(-1087.823 -1413.947)" fill="#fff"/>
            </g>
            <path id="Path_834" data-name="Path 834" d="M1446.261,1372.933c5.649-.433,16.226-.634,22.049-.715a5.277,5.277,0,0,1,5.21,4.036,86.019,86.019,0,0,1,2.479,21.318,4.686,4.686,0,0,1-4.729,4.588l-21.487-.231a5.16,5.16,0,0,1-5.082-4.679l-1.889-20.214A3.759,3.759,0,0,1,1446.261,1372.933Z" transform="translate(-1288.735 -1174.251)" fill="url(#linear-gradient-13)"/>
            <g id="Group_141" data-name="Group 141" transform="translate(194.454 206.979)" opacity="0.6">
              <path id="Path_835" data-name="Path 835" d="M1632.631,1413.95a2.593,2.593,0,0,0-2.771,3.086l.521,3.465a3.913,3.913,0,0,0,3.741,3.222h52.185a3.219,3.219,0,0,0,3.217-3.258l-.011-.881a3.489,3.489,0,0,0-3.3-3.394Z" transform="translate(-1629.824 -1413.947)" fill="#fff"/>
            </g>
            <g id="Group_146" data-name="Group 146" transform="translate(43.702 244.991)">
              <path id="Path_836" data-name="Path 836" d="M958.9,1648.3h-.054l-19.827-.19a5.33,5.33,0,0,1-5.44-4.533l-1.743-16.635a3.615,3.615,0,0,1,.854-2.719,4.356,4.356,0,0,1,3.034-1.5h0c1.67-.114,4.023-.314,6.513-.526,5.244-.447,11.771-1,15.443-1.048a5.541,5.541,0,0,1,5.552,3.883c1.033,3.819.942,11.048.746,18.748A4.9,4.9,0,0,1,958.9,1648.3Zm-23.073-24.055a2.819,2.819,0,0,0-1.972.958,2.1,2.1,0,0,0-.505,1.579l1.743,16.636a3.814,3.814,0,0,0,3.94,3.17l19.827.19h.04a3.378,3.378,0,0,0,3.555-3.034c.193-7.584.286-14.691-.693-18.313a4.091,4.091,0,0,0-4.063-2.758c-3.617.046-10.113.6-15.332,1.043-2.5.214-4.856.414-6.538.529Z" transform="translate(-931.82 -1614.413)" fill="#fff"/>
              <path id="Path_837" data-name="Path 837" d="M950.987,1638.865c4.165-.285,13.218-1.2,17.512-1.257a3.838,3.838,0,0,1,3.842,2.654c.829,3.064.719,9.171.575,14.808a3.3,3.3,0,0,1-3.487,3.018l-15.845-.152a3.661,3.661,0,0,1-3.748-3.077l-1.393-13.294A2.574,2.574,0,0,1,950.987,1638.865Z" transform="translate(-944.844 -1627.315)" fill="#fff" opacity="0.6"/>
              <g id="Group_142" data-name="Group 142" transform="translate(44.332 16.665)" opacity="0.6">
                <path id="Path_838" data-name="Path 838" d="M1137.25,1673.29a4.923,4.923,0,0,0,4.8,3.667l183.45-1.564a3.723,3.723,0,0,0-.015-7.445l-183.455-.837A4.923,4.923,0,0,0,1137.25,1673.29Z" transform="translate(-1137.085 -1667.112)" fill="#fff"/>
              </g>
              <path id="Path_839" data-name="Path 839" d="M958.472,1604.11h0a3.043,3.043,0,0,1,4.2,1.142l3.911,7.01a.977.977,0,0,0,1.745-.076l9.7-21.595a1.083,1.083,0,0,1,2.07.468,42.633,42.633,0,0,1-12.406,29.671s-5.816-2.261-10.5-12.546A3.191,3.191,0,0,1,958.472,1604.11Z" transform="translate(-951.485 -1589.951)" fill="url(#linear-gradient-14)"/>
              <path id="Path_840" data-name="Path 840" d="M958.9,1845.059h-.054l-19.827-.191a5.33,5.33,0,0,1-5.44-4.533l-1.743-16.636a3.615,3.615,0,0,1,.854-2.719,4.353,4.353,0,0,1,3.034-1.5h0c1.67-.114,4.023-.315,6.513-.526,5.244-.447,11.771-1,15.443-1.049h.08a5.53,5.53,0,0,1,5.472,3.884c1.033,3.819.942,11.048.746,18.749A4.9,4.9,0,0,1,958.9,1845.059ZM935.83,1821a2.821,2.821,0,0,0-1.972.958,2.1,2.1,0,0,0-.505,1.58l1.743,16.636a3.814,3.814,0,0,0,3.94,3.17l19.827.19h.04a3.378,3.378,0,0,0,3.555-3.034c.193-7.584.286-14.691-.693-18.313a4.07,4.07,0,0,0-4.063-2.758c-3.617.045-10.113.6-15.332,1.043-2.5.211-4.856.412-6.538.529Z" transform="translate(-931.82 -1768.675)" fill="#fff"/>
              <path id="Path_841" data-name="Path 841" d="M950.987,1835.624c4.165-.285,13.218-1.2,17.512-1.257a3.839,3.839,0,0,1,3.842,2.654c.829,3.064.719,9.171.575,14.808a3.3,3.3,0,0,1-3.487,3.018l-15.845-.152a3.661,3.661,0,0,1-3.748-3.077l-1.393-13.294A2.573,2.573,0,0,1,950.987,1835.624Z" transform="translate(-944.844 -1781.578)" fill="#fff" opacity="0.6"/>
              <g id="Group_143" data-name="Group 143" transform="translate(44.332 59.158)" opacity="0.6">
                <path id="Path_842" data-name="Path 842" d="M1137.25,1870.041a4.923,4.923,0,0,0,4.8,3.667l183.45-1.564a3.722,3.722,0,0,0-.015-7.445l-183.455-.837A4.924,4.924,0,0,0,1137.25,1870.041Z" transform="translate(-1137.085 -1863.862)" fill="#fff"/>
              </g>
              <path id="Path_843" data-name="Path 843" d="M958.472,1800.87h0a3.043,3.043,0,0,1,4.2,1.142l3.911,7.01a.977.977,0,0,0,1.745-.076l9.7-21.595a1.083,1.083,0,0,1,2.07.468,42.634,42.634,0,0,1-12.406,29.671s-5.816-2.261-10.5-12.547A3.191,3.191,0,0,1,958.472,1800.87Z" transform="translate(-951.485 -1744.216)" fill="url(#linear-gradient-15)"/>
              <path id="Path_844" data-name="Path 844" d="M958.9,2041.819h-.054l-19.827-.191a5.328,5.328,0,0,1-5.44-4.532l-1.743-16.636a3.615,3.615,0,0,1,.854-2.719,4.353,4.353,0,0,1,3.033-1.5h0c1.67-.114,4.023-.314,6.513-.526,5.244-.447,11.771-1,15.443-1.048h.08a5.53,5.53,0,0,1,5.472,3.884c1.033,3.819.942,11.048.746,18.749A4.9,4.9,0,0,1,958.9,2041.819Zm-23.073-24.058a2.821,2.821,0,0,0-1.972.958,2.1,2.1,0,0,0-.505,1.58l1.743,16.636a3.813,3.813,0,0,0,3.94,3.169l19.828.191h.04a3.378,3.378,0,0,0,3.555-3.034c.193-7.584.286-14.691-.693-18.313a4.063,4.063,0,0,0-4.063-2.758c-3.617.045-10.113.6-15.332,1.043-2.5.213-4.856.414-6.538.529Z" transform="translate(-931.82 -1922.94)" fill="#fff"/>
              <path id="Path_845" data-name="Path 845" d="M950.987,2032.374c4.165-.285,13.218-1.2,17.512-1.257a3.839,3.839,0,0,1,3.842,2.654c.829,3.064.719,9.171.575,14.808a3.3,3.3,0,0,1-3.487,3.018l-15.845-.152a3.661,3.661,0,0,1-3.748-3.077l-1.393-13.294A2.574,2.574,0,0,1,950.987,2032.374Z" transform="translate(-944.844 -1935.835)" fill="#fff" opacity="0.6"/>
              <g id="Group_144" data-name="Group 144" transform="translate(44.332 101.653)" opacity="0.6">
                <path id="Path_846" data-name="Path 846" d="M1137.25,2066.8a4.923,4.923,0,0,0,4.8,3.667l183.45-1.564a3.722,3.722,0,0,0-.015-7.445l-183.455-.837A4.923,4.923,0,0,0,1137.25,2066.8Z" transform="translate(-1137.085 -2060.622)" fill="#fff"/>
              </g>
              <path id="Path_847" data-name="Path 847" d="M958.472,1997.62h0a3.043,3.043,0,0,1,4.2,1.142l3.911,7.01a.977.977,0,0,0,1.745-.076l9.7-21.595a1.083,1.083,0,0,1,2.07.468,42.634,42.634,0,0,1-12.406,29.671s-5.816-2.261-10.5-12.546A3.192,3.192,0,0,1,958.472,1997.62Z" transform="translate(-951.485 -1898.473)" fill="url(#linear-gradient-16)"/>
              <path id="Path_848" data-name="Path 848" d="M958.9,2238.569h-.054l-19.827-.19a5.328,5.328,0,0,1-5.44-4.532l-1.743-16.635a3.615,3.615,0,0,1,.854-2.719,4.354,4.354,0,0,1,3.033-1.5h0c1.67-.114,4.023-.314,6.513-.526,5.244-.447,11.771-1,15.443-1.049h.08a5.53,5.53,0,0,1,5.472,3.884c1.033,3.819.942,11.048.746,18.749A4.9,4.9,0,0,1,958.9,2238.569Zm-23.073-24.055a2.819,2.819,0,0,0-1.972.958,2.1,2.1,0,0,0-.505,1.581l1.743,16.635a3.813,3.813,0,0,0,3.94,3.169l19.828.19h.04a3.378,3.378,0,0,0,3.555-3.034c.193-7.584.286-14.691-.693-18.312a4.056,4.056,0,0,0-4.063-2.758c-3.617.045-10.113.6-15.332,1.042-2.5.214-4.856.415-6.538.529Z" transform="translate(-931.82 -2077.197)" fill="#fff"/>
              <path id="Path_849" data-name="Path 849" d="M950.987,2229.135c4.165-.285,13.218-1.2,17.512-1.257a3.838,3.838,0,0,1,3.842,2.654c.829,3.064.719,9.172.575,14.808a3.3,3.3,0,0,1-3.487,3.018l-15.845-.151a3.661,3.661,0,0,1-3.747-3.078l-1.393-13.294A2.574,2.574,0,0,1,950.987,2229.135Z" transform="translate(-944.844 -2090.101)" fill="#fff" opacity="0.6"/>
              <g id="Group_145" data-name="Group 145" transform="translate(44.332 144.148)" opacity="0.6">
                <path id="Path_850" data-name="Path 850" d="M1137.25,2263.561h0a4.923,4.923,0,0,0,4.8,3.667l183.45-1.564a3.723,3.723,0,0,0-.015-7.445l-183.455-.837A4.923,4.923,0,0,0,1137.25,2263.561Z" transform="translate(-1137.085 -2257.382)" fill="#fff"/>
              </g>
              <path id="Path_851" data-name="Path 851" d="M958.472,2194.38h0a3.043,3.043,0,0,1,4.2,1.142l3.911,7.01a.977.977,0,0,0,1.745-.076l9.7-21.595a1.083,1.083,0,0,1,2.07.468A42.634,42.634,0,0,1,967.69,2211s-5.816-2.261-10.5-12.546A3.192,3.192,0,0,1,958.472,2194.38Z" transform="translate(-951.485 -2052.737)" fill="url(#linear-gradient-17)"/>
            </g>
          </g>
          <path id="Path_852" data-name="Path 852" d="M1376.632,194.552c-10.043-6.987-18.776-6.848-24.923-5.035A12.261,12.261,0,0,0,1343,202.408l2.651,28.936,31.547,2.8S1396.329,208.254,1376.632,194.552ZM1362.76,217.9a7.866,7.866,0,1,1,7.866-7.866A7.866,7.866,0,0,1,1362.76,217.9Z" transform="translate(-1187.674 -188.462)" fill="url(#linear-gradient-18)"/>
          <path id="Path_853" data-name="Path 853" d="M1362.958,234.554a.761.761,0,0,1-.757-.692l-.422-4.608a.761.761,0,1,1,1.516-.138l.422,4.608a.761.761,0,0,1-.688.827C1363,234.553,1362.98,234.554,1362.958,234.554Zm-.829-9.031a.761.761,0,0,1-.757-.692l-.321-3.5a11.7,11.7,0,0,1,8.3-12.28,23.576,23.576,0,0,1,11.53-.473.761.761,0,1,1-.305,1.491,22.1,22.1,0,0,0-10.793.442,10.179,10.179,0,0,0-7.213,10.682l.321,3.5a.762.762,0,0,1-.688.828C1362.176,225.522,1362.153,225.523,1362.129,225.523Z" transform="translate(-1201.828 -203.843)" fill="#fff"/>
          <path id="Path_854" data-name="Path 854" d="M1156.11,388.562V374.013a8.878,8.878,0,0,1,9.182-8.872l100.3,3.437a8.634,8.634,0,0,1,8.323,8.112l.839,13.979Z" transform="translate(-1041.188 -326.978)" fill="url(#linear-gradient-19)"/>
          <path id="Path_855" data-name="Path 855" d="M1310.858,385.015h-4.314a.761.761,0,1,1,0-1.522h4.314a.761.761,0,1,1,0,1.522Z" transform="translate(-1158.535 -341.371)" fill="#fff"/>
          <path id="Path_856" data-name="Path 856" d="M1178.487,398.385a.761.761,0,0,1-.761-.761v-5.885a8.256,8.256,0,0,1,8.247-8.247h15.859a.761.761,0,1,1,0,1.522h-15.859a6.732,6.732,0,0,0-6.724,6.724v5.885A.763.763,0,0,1,1178.487,398.385Z" transform="translate(-1058.135 -341.37)" fill="#fff"/>
          <path id="Path_857" data-name="Path 857" d="M1656.984,609.414l-23.612-19.254-23.613,19.254a404.463,404.463,0,0,0,1.764-60.242q-.476-10.475-1.435-20.279a2.989,2.989,0,0,1,2.979-3.275h41.088a2.988,2.988,0,0,1,2.984,2.83q.787,15.047.979,31.122C1658.3,577.04,1657.868,593.683,1656.984,609.414Z" transform="translate(-1396.86 -452.801)" fill="url(#linear-gradient-20)"/>
          <path id="Path_858" data-name="Path 858" d="M965.439,457.929a9.452,9.452,0,0,1,9.441-9l175.4,0a12.964,12.964,0,0,1,12.775,10.753l.149.858a11.134,11.134,0,0,1-10.971,13.033H972.282a7.239,7.239,0,0,1-7.23-7.586Z" transform="translate(-891.387 -392.672)" fill="url(#linear-gradient-21)"/>
        </g>
        <g id="Group_151" data-name="Group 151" transform="translate(412.035 241.393)">
          <path id="Path_859" data-name="Path 859" d="M2297.49,2680.282c-9.189.423-18.083.158-24.021-.147,5.407-3.849,17.863-12.221,28.286-15.555l7.155-.428s2.425,3.687,3.29,12.125C2311.014,2677.758,2307.548,2679.821,2297.49,2680.282Z" transform="translate(-2198.302 -2333.535)" fill="url(#linear-gradient-22)"/>
          <path id="Path_860" data-name="Path 860" d="M2271.208,2724.207l.074-.052c5.938.305,14.832.571,24.021.148,10.058-.463,13.524-2.526,14.71-4.005.04.389.08.775.113,1.184a3.35,3.35,0,0,1-3.078,3.617c-7.525.569-26.183,1.858-35.181,1.385A1.256,1.256,0,0,1,2271.208,2724.207Z" transform="translate(-2196.115 -2377.555)" fill="url(#linear-gradient-23)"/>
          <path id="Path_861" data-name="Path 861" d="M2688.821,2679.339c.674-4.314,1.752-10.55,2.586-12.144,1.308-2.5,5.785,0,5.785,0a11.889,11.889,0,0,1,4.59,3.909c.922,1.557,3.472,5.988,5.2,9a2.012,2.012,0,0,1,.271,1.071l-17.928.627A3.578,3.578,0,0,1,2688.821,2679.339Z" transform="translate(-2523.915 -2335.05)" fill="url(#linear-gradient-24)"/>
          <path id="Path_862" data-name="Path 862" d="M2709.239,2735.94a2.042,2.042,0,0,1-1.987,1.985l-12.772.351a3.605,3.605,0,0,1-3.169-1.708Z" transform="translate(-2525.901 -2389.818)" fill="url(#linear-gradient-25)"/>
          <path id="Path_863" data-name="Path 863" d="M2682.64,2596.715c.155.518,2.471,11.748,3.486,16.677a2.815,2.815,0,0,0,2.9,2.249c.759-.038,1.641-.106,2.567-.226a3.4,3.4,0,0,0,2.956-3.239c.165-4.317.246-12.607-1.34-15.819C2691.018,2591.927,2682.64,2596.715,2682.64,2596.715Z" transform="translate(-2519.103 -2278.908)" fill="url(#linear-gradient-26)"/>
          <path id="Path_864" data-name="Path 864" d="M2407.818,2606.758c-.994-.032.4,5.13-1.107,10.2a2.608,2.608,0,0,1-2.388,2.058c-.773.01-1.69,0-2.62-.08a2.881,2.881,0,0,1-2.654-2.6l-1.223-13.159Z" transform="translate(-2295.801 -2285.735)" fill="url(#linear-gradient-27)"/>
          <path id="Path_865" data-name="Path 865" d="M2315.41,1948.878c.443,2.159,16.1,93.459,17.046,140.7a1.608,1.608,0,0,0,1.384,1.566,31.592,31.592,0,0,0,9.609-.063,1.131,1.131,0,0,0,.934-1.04c.547-8.8,4.947-83.241-.441-118.283,0,0,44.506,93.67,51.253,119.5a1.358,1.358,0,0,0,1.39,1.017,33.612,33.612,0,0,0,9.018-1.6,2.356,2.356,0,0,0,1.486-2.769c-3.769-15.457-30.185-121.954-48.12-145.417Z" transform="translate(-2231.185 -1767.734)" fill="url(#linear-gradient-28)"/>
          <path id="Path_866" data-name="Path 866" d="M2423.755,2054.365a.584.584,0,0,0,.418-.992l-5.96-6.095a.584.584,0,1,0-.835.817l5.96,6.094A.577.577,0,0,0,2423.755,2054.365Z" transform="translate(-2311 -1849.753)" fill="url(#linear-gradient-29)"/>
          <path id="Path_867" data-name="Path 867" d="M2200.874,1416.907c13.316-2,39.449-4.87,56.5.132l-1.848,52.685-61.759-6.658-5.239-7.446S2190.95,1418.4,2200.874,1416.907Z" transform="translate(-2131.703 -1353.583)" fill="url(#linear-gradient-30)"/>
          <path id="Path_868" data-name="Path 868" d="M2314.659,1295.95s1.234,20.955,1,27.474c0,0-17.156,2.808-21.24-.128l3.226-24.841Z" transform="translate(-2214.729 -1260.831)" fill="url(#linear-gradient-31)"/>
          <g id="Group_149" data-name="Group 149" transform="translate(74.211)">
            <path id="Path_869" data-name="Path 869" d="M2278.089,1198.77s-6.907,12.125-8,18.762-3,10.815,4.58,12.99,14.493-.97,18.733-7.242c0,0,6.624-9.654,5.837-13.985S2278.089,1198.77,2278.089,1198.77Z" transform="translate(-2269.047 -1184.639)" fill="url(#linear-gradient-32)"/>
            <path id="Path_870" data-name="Path 870" d="M2300.075,1166.918l-.976-.105s4.91-7.816,1.532-9.645-17.066-6.191-19.552-11.482c-2.4-5.1.866-11.006,4.937-12.319a.522.522,0,0,1,.635.315l.257.643a.527.527,0,0,0,.978.005h0a.525.525,0,0,1,.956-.043c.764,1.585,3.007,4.269,9.588,6.231,9.337,2.784,15.22,7.317,14.666,13.917a.528.528,0,0,0,.765.518c.75-.353,1.9-.433,3.264.994,2.379,2.481.694,8.071-5.545,12.147a.524.524,0,0,0-.065.843c.967.789,2.343,2.566-1.9,4.28-4.344,1.753-6.749,1.252-7.641.919a.528.528,0,0,1-.339-.585l.989-5.8a.528.528,0,0,0-.463-.613Z" transform="translate(-2277.841 -1133.343)" fill="url(#linear-gradient-33)"/>
            <path id="Path_871" data-name="Path 871" d="M2370.27,1273.35s2.988-7.9,6.385-5.228-2.871,8.9-5.833,8.89Z" transform="translate(-2348.409 -1238.58)" fill="url(#linear-gradient-34)"/>
          </g>
          <g id="Group_150" data-name="Group 150" transform="translate(0 93.462)">
            <path id="Path_872" data-name="Path 872" d="M2027.76,1577.164l1.638-6.438a6.157,6.157,0,0,1,7.2-4.515l154.236,31.467a6.46,6.46,0,0,1,5.03,7.663l-9.4,44.573Z" transform="translate(-2005.661 -1566.086)" fill="url(#linear-gradient-35)"/>
            <path id="Path_873" data-name="Path 873" d="M1960.05,1667.4l11.6-83.375a2.982,2.982,0,0,1,3.6-2.5l158.413,35.178a6.234,6.234,0,0,1,4.723,7.487l-13.3,57.631Z" transform="translate(-1952.574 -1578.132)" fill="#fff"/>
            <path id="Path_874" data-name="Path 874" d="M1979.42,1681.047l4.443-74.417a3.135,3.135,0,0,1,3.778-2.88l160.078,33.874a4.333,4.333,0,0,1,3.383,4.918l-8.527,53.757Z" transform="translate(-1967.761 -1595.562)" fill="#fff"/>
            <path id="Path_875" data-name="Path 875" d="M1925.5,1728.412l10.078-80.605a7.02,7.02,0,0,1,8.268-6.027l164.148,30.982a6.135,6.135,0,0,1,4.89,7.165l-13.864,73.454a6.638,6.638,0,0,1-7.4,5.348l-159.13-21.251A8.128,8.128,0,0,1,1925.5,1728.412Z" transform="translate(-1925.436 -1625.335)" fill="url(#linear-gradient-36)"/>
            <path id="Path_876" data-name="Path 876" d="M2099.889,1640.51h0a6.3,6.3,0,0,1-7.361,5.023l-36.6-6.908a6.3,6.3,0,0,1-5.023-7.361h0a6.3,6.3,0,0,1,7.361-5.023l36.6,6.908A6.3,6.3,0,0,1,2099.889,1640.51Z" transform="translate(-2023.72 -1613.162)" fill="url(#linear-gradient-37)"/>
          </g>
          <path id="Path_877" data-name="Path 877" d="M2427.52,1450.123l17.226-22.973s27.68,29.405,32.991,66.728l-17.267,8.421C2455.113,1489.731,2445.247,1472.706,2427.52,1450.123Z" transform="translate(-2319.083 -1363.695)" fill="url(#linear-gradient-38)"/>
          <path id="Path_878" data-name="Path 878" d="M2530.3,1795.844c2.041-3.414,6.025-9.914,7.963-11.942a8.316,8.316,0,0,0-5.17-.7c-3.4.417-6.06-1.24-5.959-3.09l16.215-4.974c.729-1.523,3.937-10.16-4.781-30.6l17.267-8.421a77.787,77.787,0,0,1-6.064,44.119s-5.363,16.653-11.523,20.349C2522.172,1810.225,2529.517,1797.155,2530.3,1795.844Z" transform="translate(-2397.18 -1605.929)" fill="url(#linear-gradient-39)"/>
        </g>
        <g id="Group_152" data-name="Group 152" transform="translate(84.615 214.14)">
          <path id="Path_879" data-name="Path 879" d="M615.554,1008.236l-3.4,4.309-.013.016a.724.724,0,0,1-1.136-.9l.011-.014,3.529-4.256a.658.658,0,0,1,1.024.827Z" transform="translate(-567.345 -1007.155)" fill="#fff"/>
          <path id="Path_880" data-name="Path 880" d="M551.67,1079.685l-5.767,9.2-.028.044a1,1,0,0,1-1.689-1.059l.011-.016,6-9.17a.891.891,0,0,1,1.5.96Z" transform="translate(-514.963 -1062.92)" fill="#fff"/>
          <path id="Path_881" data-name="Path 881" d="M496.352,1178.05l-4.626,9.811-.027.059a1.218,1.218,0,1,1-2.2-1.039l.009-.019,4.854-9.839a1.121,1.121,0,0,1,2.019.972Z" transform="translate(-472.112 -1139.845)" fill="#fff"/>
          <path id="Path_882" data-name="Path 882" d="M453.927,1282.767l-3.357,10.3-.025.077a1.439,1.439,0,1,1-2.737-.892c0-.005.006-.019.008-.024l3.591-10.384a1.342,1.342,0,0,1,2.544.853Z" transform="translate(-439.463 -1221.807)" fill="#fff"/>
          <path id="Path_883" data-name="Path 883" d="M425.97,1392.518l-2,10.628-.018.093a1.6,1.6,0,1,1-3.148-.594l0-.017,2.155-10.788a1.543,1.543,0,0,1,3.029.587Z" transform="translate(-418.323 -1307.786)" fill="#fff"/>
          <path id="Path_884" data-name="Path 884" d="M413.437,1505.823l-.53,10.791-.006.1a1.737,1.737,0,1,1-3.47-.17v-.019l.659-10.99a1.678,1.678,0,0,1,3.35.182Z" transform="translate(-409.429 -1396.664)" fill="#fff"/>
          <path id="Path_885" data-name="Path 885" d="M413.646,1620.437l.957,10.756.01.112a1.873,1.873,0,0,1-3.73.333l0-.02-.858-10.987a1.813,1.813,0,0,1,3.613-.3Z" transform="translate(-409.89 -1486.603)" fill="#fff"/>
          <path id="Path_886" data-name="Path 886" d="M427.273,1734.189l2.417,10.518.027.116a2.008,2.008,0,0,1-3.914.9l0-.021-2.353-10.773a1.948,1.948,0,0,1,3.8-.853Z" transform="translate(-420.382 -1575.893)" fill="#fff"/>
          <path id="Path_887" data-name="Path 887" d="M456.3,1844.928l3.771,10.108.042.114a2.111,2.111,0,1,1-3.955,1.475l0-.01-3.8-10.354a2.083,2.083,0,1,1,3.911-1.437Z" transform="translate(-442.977 -1662.838)" fill="#fff"/>
          <path id="Path_888" data-name="Path 888" d="M500.03,1951.133l5.04,9.54.057.106a2.156,2.156,0,0,1-3.812,2.014l0-.007-5.117-9.77a2.136,2.136,0,1,1,3.784-1.982Z" transform="translate(-477.263 -1746.281)" fill="#fff"/>
          <path id="Path_889" data-name="Path 889" d="M557.07,2050.868l6.2,8.831.069.1a2.2,2.2,0,1,1-3.6,2.529l0-.006-6.3-9.05a2.18,2.18,0,1,1,3.578-2.493Z" transform="translate(-522.021 -1824.648)" fill="#fff"/>
          <path id="Path_890" data-name="Path 890" d="M626.168,2142.652l7.253,7.982.084.093a2.245,2.245,0,0,1-3.323,3.02l-.006-.006-7.391-8.193a2.226,2.226,0,0,1,3.305-2.981Z" transform="translate(-576.256 -1896.77)" fill="#fff"/>
          <path id="Path_891" data-name="Path 891" d="M706.281,2224.944l8.223,6.96.105.089a2.29,2.29,0,0,1-2.959,3.5l-.007-.005-8.405-7.166a2.27,2.27,0,0,1,2.946-3.455Z" transform="translate(-639.158 -1961.442)" fill="#fff"/>
          <path id="Path_892" data-name="Path 892" d="M796.667,2295.7l4.56,2.842,2.279,1.422c.764.466,1.507.967,2.291,1.4a2.335,2.335,0,1,1-2.256,4.089l-.008,0-.062-.034c-.807-.45-1.571-.968-2.358-1.451l-2.344-1.472-4.685-2.948a2.314,2.314,0,0,1,2.464-3.918Z" transform="translate(-710.159 -2017.068)" fill="#fff"/>
          <path id="Path_893" data-name="Path 893" d="M897.007,2351.8q4.883,2.231,9.916,4.13a2.349,2.349,0,0,1-1.652,4.4q-5.181-1.939-10.226-4.234a2.36,2.36,0,0,1,1.961-4.294Z" transform="translate(-789.082 -2061.224)" fill="#fff"/>
          <path id="Path_894" data-name="Path 894" d="M1004.819,2391.279l10.443,2.59.141.035a2.317,2.317,0,0,1-1.109,4.5l-10.736-2.634a2.331,2.331,0,0,1,1.11-4.527l.005,0Z" transform="translate(-873.85 -2092.26)" fill="#fff"/>
          <path id="Path_895" data-name="Path 895" d="M1117.634,2414.562l10.716,1.14.129.013a2.281,2.281,0,0,1-.475,4.538l-10.98-1.131a2.3,2.3,0,0,1,.471-4.575h.008Z" transform="translate(-962.583 -2110.576)" fill="#fff"/>
          <path id="Path_896" data-name="Path 896" d="M1232.709,2422.149l10.792-.174.113,0a2.187,2.187,0,0,1,.088,4.373l-11.02.261a2.229,2.229,0,1,1-.105-4.456h.016Z" transform="translate(-1053.091 -2116.407)" fill="#fff"/>
          <path id="Path_897" data-name="Path 897" d="M1348.071,2412.1l10.72-1.389.1-.013a2.091,2.091,0,0,1,.553,4.145l-10.906,1.5a2.135,2.135,0,1,1-.582-4.229l.016,0Z" transform="translate(-1143.811 -2107.553)" fill="#fff"/>
          <path id="Path_898" data-name="Path 898" d="M1462.3,2390.246l10.54-2.456.08-.019a1.908,1.908,0,0,1,.893,3.709l-10.667,2.651a1.989,1.989,0,0,1-.959-3.86l.018,0Z" transform="translate(-1233.635 -2089.553)" fill="#fff"/>
          <path id="Path_899" data-name="Path 899" d="M1574.264,2357.392l10.269-3.459.067-.023a1.725,1.725,0,0,1,1.125,3.26l-10.352,3.658a1.805,1.805,0,1,1-1.2-3.4l.016-.006Z" transform="translate(-1321.67 -2062.973)" fill="#fff"/>
          <path id="Path_900" data-name="Path 900" d="M1682.979,2314.531l9.928-4.374.054-.024a1.541,1.541,0,0,1,1.263,2.812l-9.972,4.569a1.622,1.622,0,1,1-1.351-2.948l.014-.007Z" transform="translate(-1407.12 -2028.62)" fill="#fff"/>
          <path id="Path_901" data-name="Path 901" d="M1787.9,2262.949l9.555-5.165.04-.022a1.261,1.261,0,0,1,1.226,2.2l-9.511,5.441a1.393,1.393,0,1,1-1.384-2.418l.023-.013Z" transform="translate(-1489.58 -1987.544)" fill="#fff"/>
          <path id="Path_902" data-name="Path 902" d="M1888.629,2203.178l9.114-5.931.028-.018a.961.961,0,0,1,1.068,1.6l-9.027,6.189a1.093,1.093,0,0,1-1.236-1.8l.017-.012Z" transform="translate(-1568.744 -1940.08)" fill="#fff"/>
          <path id="Path_903" data-name="Path 903" d="M1984.765,2148.014l4.4-3.3.009-.007a.658.658,0,0,1,.806,1.041l-4.314,3.454a.748.748,0,1,1-.934-1.167l.016-.012Z" transform="translate(-1644.289 -1898.922)" fill="#fff"/>
        </g>
      </g>
    </g>
  </g>
</svg>
