<svg xmlns="http://www.w3.org/2000/svg" width="17.864" height="20.5" viewBox="0 0 17.864 20.5">
  <g id="Profile_Delete_2" data-name="Profile Delete 2" transform="translate(-3.25 -1.25)">
    <path id="Vector" d="M12.5,4.75A4.75,4.75,0,1,1,7.75,0,4.75,4.75,0,0,1,12.5,4.75ZM7.75,8A3.25,3.25,0,1,0,4.5,4.75,3.25,3.25,0,0,0,7.75,8Z" transform="translate(3.25 1.25)" fill="red" fill-rule="evenodd"/>
    <path id="Vector-2" data-name="Vector" d="M10.75,11a.75.75,0,0,1,0,1.5h-6a3.25,3.25,0,0,0,0,6.5h6a.75.75,0,0,1,0,1.5h-6a4.75,4.75,0,0,1,0-9.5Z" transform="translate(3.25 1.25)" fill="red"/>
    <path id="Vector-3" data-name="Vector" d="M16.053,15.993l1.591,1.591a.75.75,0,1,1-1.061,1.061l-1.591-1.591L13.4,18.644a.75.75,0,0,1-1.061-1.061l1.591-1.591L12.341,14.4A.75.75,0,0,1,13.4,13.341l1.591,1.591,1.591-1.591A.75.75,0,1,1,17.644,14.4Z" transform="translate(3.25 1.25)" fill="red"/>
  </g>
</svg>
