<?xml version="1.0" encoding="utf-8"?>
<!-- Generator: Adobe Illustrator 16.2.0, SVG Export Plug-In . SVG Version: 6.00 Build 0)  -->
<!DOCTYPE svg PUBLIC "-//W3C//DTD SVG 1.1//EN" "http://www.w3.org/Graphics/SVG/1.1/DTD/svg11.dtd">
<svg version="1.1" id="Test4" xmlns="http://www.w3.org/2000/svg" xmlns:xlink="http://www.w3.org/1999/xlink" x="0px" y="0px"
	 width="400px" height="378.885px" viewBox="444.398 112.322 400 378.885" enable-background="new 444.398 112.322 400 378.885"
	 xml:space="preserve">
<g>
	
		<linearGradient id="Path_96_2_" gradientUnits="userSpaceOnUse" x1="22.5591" y1="0.0039" x2="22.4471" y2="0.1704" gradientTransform="matrix(16.7527 0 0 45.5212 209.0783 167.624)">
		<stop  offset="0" style="stop-color:#FFFFFF"/>
		<stop  offset="1" style="stop-color:#2F4499;stop-opacity:0.302"/>
	</linearGradient>
	<path id="Path_96" fill="url(#Path_96_2_)" d="M589.301,176.087c-0.298,0.084-0.593,0.166-0.892,0.251
		c-4.871-11.319-5.235-17.939-3.198-12.157C586.441,167.674,587.64,171.733,589.301,176.087z"/>
	
		<linearGradient id="Path_97_2_" gradientUnits="userSpaceOnUse" x1="43.291" y1="-0.3452" x2="43.2644" y2="-0.046" gradientTransform="matrix(390.3069 0 0 141.2799 -16376.416 250.8896)">
		<stop  offset="0" style="stop-color:#FFFFFF"/>
		<stop  offset="1" style="stop-color:#2F4499;stop-opacity:0.302"/>
	</linearGradient>
	<path id="Path_97" fill="url(#Path_97_2_)" d="M578.866,188.197c0.248,0.577,0.508,1.166,0.781,1.767
		c-53.558,22.111-107.187,42.871-119.075,42.576C443.081,232.106,493.805,211.895,578.866,188.197z"/>
	
		<linearGradient id="Path_98_2_" gradientUnits="userSpaceOnUse" x1="35.3301" y1="-1.8364" x2="35.3022" y2="-1.5497" gradientTransform="matrix(44.64 0 0 17.65 -980.2191 209.1846)">
		<stop  offset="0" style="stop-color:#FFFFFF"/>
		<stop  offset="1" style="stop-color:#2F4499;stop-opacity:0.302"/>
	</linearGradient>
	<path id="Path_98" fill="url(#Path_98_2_)" d="M590.571,180.634c-0.235-0.571-0.456-1.136-0.669-1.698
		c4.573-1.271,9.244-2.552,14.013-3.841C599.482,176.939,595.035,178.786,590.571,180.634z"/>
	
		<linearGradient id="Path_99_2_" gradientUnits="userSpaceOnUse" x1="39.2275" y1="-6.2285" x2="39.2081" y2="-5.8505" gradientTransform="matrix(136.01 0 0 28.2141 -4625.3682 418.5264)">
		<stop  offset="0" style="stop-color:#FFFFFF"/>
		<stop  offset="1" style="stop-color:#2F4499;stop-opacity:0.302"/>
	</linearGradient>
	<path id="Path_99" fill="url(#Path_99_2_)" d="M688.062,248.892c14.056-3.55,28.312-6.249,42.693-8.082
		C724.738,247.784,711.863,251.344,688.062,248.892z"/>
	
		<linearGradient id="Path_100_2_" gradientUnits="userSpaceOnUse" x1="42.5557" y1="-2.3296" x2="42.5343" y2="-1.9886" gradientTransform="matrix(391.976 0 0 99.7237 -16029.3496 513.0303)">
		<stop  offset="0" style="stop-color:#FFFFFF"/>
		<stop  offset="1" style="stop-color:#2F4499;stop-opacity:0.302"/>
	</linearGradient>
	<path id="Path_100" fill="url(#Path_100_2_)" d="M658.314,270.463c14.61,4.061,32.02,5.437,52.671,2.486
		c0.436-0.063,0.693-0.103,0.781-0.111c-1.711,0.283-82.067,12.364-117.132,27.08C574.973,308.17,606.487,287.055,658.314,270.463z"
		/>
	
		<linearGradient id="Path_101_2_" gradientUnits="userSpaceOnUse" x1="43.4639" y1="0.2876" x2="43.4378" y2="0.5979" gradientTransform="matrix(1274.329 0 0 561.726 -54724.3086 9.3271)">
		<stop  offset="0" style="stop-color:#FFFFFF"/>
		<stop  offset="1" style="stop-color:#2F4499;stop-opacity:0.302"/>
	</linearGradient>
	<path id="Path_101" fill="url(#Path_101_2_)" d="M782.363,155.338l-16.722,37.927l77.405,57.29
		c-34.592-13.354-71.242-14.144-105.602-8.557c12.237-18.376-1.908-53.787-12.78-81.772c-7.626-19.634-64.314,3.866-124.731,35.896
		c9.986,22.608,30.931,46.664,85.176,56.125c2.242,0.388,4.402,0.722,6.483,1c-9.548,3.097-18.694,6.521-27.318,10.099
		c-34.343-12.365-54.314-42.631-64.943-66.904c-74.733,39.669-154.933,92.203-154.933,92.203
		c26.367-25.724,91.666-63.467,153.721-95.039c-1.365-3.267-2.552-6.399-3.58-9.343c0.277-0.148,0.556-0.296,0.837-0.445
		c0.954,3.083,2.053,6.255,3.361,9.474c35.685-18.14,70.25-34.214,95.667-44.767c-30.311,9.155-58.788,18.498-84.696,27.583
		c59.556-32.184,114.732-63.785,114.732-63.785h119.959v88.931L782.363,155.338z"/>
</g>
<g>
	
		<linearGradient id="Path_96_3_" gradientUnits="userSpaceOnUse" x1="22.6191" y1="4.166" x2="22.5072" y2="4.3325" gradientTransform="matrix(-16.7527 0 0 45.5212 1079.7186 167.624)">
		<stop  offset="0" style="stop-color:#FFFFFF"/>
		<stop  offset="1" style="stop-color:#2F4499;stop-opacity:0.302"/>
	</linearGradient>
	<path id="Path_96_1_" fill="url(#Path_96_3_)" d="M702.586,353.624c2.037-5.782,1.673,0.838-3.198,12.156
		c-0.299-0.085-0.594-0.166-0.892-0.25C700.156,361.176,701.355,357.116,702.586,353.624z"/>
	
		<linearGradient id="Path_97_3_" gradientUnits="userSpaceOnUse" x1="43.2939" y1="0.9956" x2="43.2673" y2="1.2948" gradientTransform="matrix(-390.3069 0 0 141.2799 17665.2129 250.8896)">
		<stop  offset="0" style="stop-color:#FFFFFF"/>
		<stop  offset="1" style="stop-color:#2F4499;stop-opacity:0.302"/>
	</linearGradient>
	<path id="Path_97_1_" fill="url(#Path_97_3_)" d="M827.225,421.981c-11.889,0.295-65.517-20.465-119.074-42.576
		c0.272-0.601,0.533-1.189,0.781-1.766C793.992,401.337,844.717,421.549,827.225,421.981z"/>
	
		<linearGradient id="Path_98_3_" gradientUnits="userSpaceOnUse" x1="35.3535" y1="8.897" x2="35.3256" y2="9.1837" gradientTransform="matrix(-44.64 0 0 17.65 2269.0159 209.1846)">
		<stop  offset="0" style="stop-color:#FFFFFF"/>
		<stop  offset="1" style="stop-color:#2F4499;stop-opacity:0.302"/>
	</linearGradient>
	<path id="Path_98_1_" fill="url(#Path_98_3_)" d="M683.882,364.536c4.769,1.29,9.439,2.571,14.013,3.842
		c-0.213,0.563-0.434,1.127-0.669,1.698C692.762,368.229,688.314,366.382,683.882,364.536z"/>
	
		<linearGradient id="Path_99_3_" gradientUnits="userSpaceOnUse" x1="39.2349" y1="0.4854" x2="39.2154" y2="0.8634" gradientTransform="matrix(-136.01 0 0 28.2141 5914.165 418.5264)">
		<stop  offset="0" style="stop-color:#FFFFFF"/>
		<stop  offset="1" style="stop-color:#2F4499;stop-opacity:0.302"/>
	</linearGradient>
	<path id="Path_99_1_" fill="url(#Path_99_3_)" d="M557.042,430.252c14.382,1.833,28.638,4.532,42.693,8.082
		C575.934,440.786,563.059,437.227,557.042,430.252z"/>
	
		<linearGradient id="Path_100_3_" gradientUnits="userSpaceOnUse" x1="42.5591" y1="-0.4292" x2="42.5377" y2="-0.0887" gradientTransform="matrix(-391.976 0 0 99.7237 17318.1465 513.0303)">
		<stop  offset="0" style="stop-color:#FFFFFF"/>
		<stop  offset="1" style="stop-color:#2F4499;stop-opacity:0.302"/>
	</linearGradient>
	<path id="Path_100_1_" fill="url(#Path_100_3_)" d="M693.162,489.36c-35.064-14.716-115.421-26.797-117.132-27.08
		c0.088,0.009,0.346,0.048,0.781,0.111c20.651,2.95,38.061,1.574,52.671-2.486C681.31,476.497,712.824,497.612,693.162,489.36z"/>
	
		<linearGradient id="Path_101_3_" gradientUnits="userSpaceOnUse" x1="43.4639" y1="0.6245" x2="43.4378" y2="0.9348" gradientTransform="matrix(-1274.329 0 0 561.726 56013.1055 9.3271)">
		<stop  offset="0" style="stop-color:#FFFFFF"/>
		<stop  offset="1" style="stop-color:#2F4499;stop-opacity:0.302"/>
	</linearGradient>
	<path id="Path_101_1_" fill="url(#Path_101_3_)" d="M444.398,390.695v-88.931h119.959c0,0,55.177,31.602,114.732,63.785
		c-25.908-9.085-54.386-18.428-84.696-27.583c25.416,10.553,59.981,26.627,95.667,44.767c1.308-3.219,2.406-6.391,3.36-9.475
		c0.28,0.149,0.56,0.298,0.837,0.445c-1.028,2.944-2.215,6.076-3.58,9.344c62.055,31.571,127.354,69.314,153.721,95.038
		c0,0-80.199-52.534-154.933-92.203c-10.629,24.273-30.601,54.539-64.943,66.904c-8.624-3.578-17.771-7.002-27.318-10.099
		c2.081-0.278,4.241-0.612,6.483-1c54.244-9.461,75.189-33.517,85.176-56.125c-60.417-32.029-117.105-55.529-124.731-35.896
		c-10.872,27.985-25.018,63.396-12.78,81.772c-34.359-5.587-71.01-4.797-105.602,8.557l77.405-57.29l-16.722-37.927L444.398,390.695
		z"/>
</g>
<path id="Path_102" fill="#FFFFFF" d="M1343.836,439.414"/>
</svg>
