<?xml version="1.0" encoding="utf-8"?>
<!-- Generator: Adobe Illustrator 16.2.0, SVG Export Plug-In . SVG Version: 6.00 Build 0)  -->
<!DOCTYPE svg PUBLIC "-//W3C//DTD SVG 1.1//EN" "http://www.w3.org/Graphics/SVG/1.1/DTD/svg11.dtd">
<svg version="1.1" id="Test4" xmlns="http://www.w3.org/2000/svg" xmlns:xlink="http://www.w3.org/1999/xlink" x="0px" y="0px"
	 width="1288.797px" height="603.529px" viewBox="55.039 0 1288.797 603.529" enable-background="new 55.039 0 1288.797 603.529"
	 xml:space="preserve">
<linearGradient id="Path_96_1_" gradientUnits="userSpaceOnUse" x1="20.9717" y1="801.9609" x2="20.6147" y2="801.4299" gradientTransform="matrix(16.7527 0 0 -45.5212 117.4603 36683.0625)">
	<stop  offset="0" style="stop-color:#FFFFFF"/>
	<stop  offset="1" style="stop-color:#2F4499;stop-opacity:0.302"/>
</linearGradient>
<path id="Path_96" fill="url(#Path_96_1_)" d="M476.1,203.143c-0.949,0.27-1.89,0.53-2.84,0.8
	c-15.52-36.06-16.68-57.15-10.189-38.73C466.989,176.343,470.81,189.273,476.1,203.143z"/>
<linearGradient id="Path_97_1_" gradientUnits="userSpaceOnUse" x1="35.291" y1="801.9844" x2="35.206" y2="801.0304" gradientTransform="matrix(390.3069 0 0 -141.2799 -13517.4609 113590.1641)">
	<stop  offset="0" style="stop-color:#FFFFFF"/>
	<stop  offset="1" style="stop-color:#2F4499;stop-opacity:0.302"/>
</linearGradient>
<path id="Path_97" fill="url(#Path_97_1_)" d="M442.856,241.721c0.789,1.84,1.619,3.716,2.489,5.63
	c-170.63,70.44-341.479,136.58-379.35,135.64C10.267,381.611,171.867,317.221,442.856,241.721z"/>
<linearGradient id="Path_98_1_" gradientUnits="userSpaceOnUse" x1="30.2891" y1="802.2236" x2="30.2001" y2="801.3096" gradientTransform="matrix(44.64 0 0 -17.65 -851.5781 14364.5557)">
	<stop  offset="0" style="stop-color:#FFFFFF"/>
	<stop  offset="1" style="stop-color:#2F4499;stop-opacity:0.302"/>
</linearGradient>
<path id="Path_98" fill="url(#Path_98_1_)" d="M480.147,217.629c-0.75-1.82-1.45-3.62-2.131-5.41
	c14.57-4.05,29.45-8.13,44.641-12.24C508.536,205.859,494.366,211.742,480.147,217.629z"/>
<linearGradient id="Path_99_1_" gradientUnits="userSpaceOnUse" x1="34.0815" y1="802.2041" x2="34.0195" y2="801.0001" gradientTransform="matrix(136.01 0 0 -28.2141 -3775.0303 23049.0977)">
	<stop  offset="0" style="stop-color:#FFFFFF"/>
	<stop  offset="1" style="stop-color:#2F4499;stop-opacity:0.302"/>
</linearGradient>
<path id="Path_99" fill="url(#Path_99_1_)" d="M790.734,435.086c44.777-11.31,90.196-19.909,136.01-25.75
	C907.582,431.556,866.562,442.896,790.734,435.086z"/>
<linearGradient id="Path_100_1_" gradientUnits="userSpaceOnUse" x1="35.2896" y1="801.9824" x2="35.2215" y2="800.8974" gradientTransform="matrix(391.976 0 0 -99.7237 -13157.3242 80513.2109)">
	<stop  offset="0" style="stop-color:#FFFFFF"/>
	<stop  offset="1" style="stop-color:#2F4499;stop-opacity:0.302"/>
</linearGradient>
<path id="Path_100" fill="url(#Path_100_1_)" d="M695.963,503.806c46.55,12.94,102.01,17.32,167.8,7.92
	c1.391-0.199,2.21-0.319,2.49-0.35c-5.45,0.9-261.45,39.39-373.16,86.271C430.452,623.936,530.853,556.666,695.963,503.806z"/>
<linearGradient id="Path_101_1_" gradientUnits="userSpaceOnUse" x1="35.8193" y1="801.9414" x2="35.7363" y2="800.9524" gradientTransform="matrix(1274.329 0 0 -561.726 -44882.7266 450657.6875)">
	<stop  offset="0" style="stop-color:#FFFFFF"/>
	<stop  offset="1" style="stop-color:#2F4499;stop-opacity:0.302"/>
</linearGradient>
<path id="Path_101" fill="url(#Path_101_1_)" d="M1145.201,137.04l-53.272,120.828l246.601,182.515
	c-110.207-42.54-226.965-45.058-336.43-27.26c38.987-58.542-6.079-171.355-40.716-260.511
	c-24.295-62.55-204.893,12.315-397.37,114.357c31.813,72.026,98.542,148.659,271.354,178.8c7.142,1.239,14.026,2.302,20.653,3.188
	c-30.417,9.866-59.555,20.776-87.028,32.173c-109.411-39.395-173.037-135.814-206.9-213.143
	C324.008,394.364,68.507,561.726,68.507,561.726c84-81.947,292.029-202.191,489.726-302.772c-4.35-10.409-8.13-20.386-11.405-29.765
	c0.881-0.473,1.771-0.946,2.664-1.419c3.039,9.824,6.541,19.927,10.708,30.183c113.686-57.791,223.807-109,304.777-142.62
	c-96.565,29.167-187.29,58.932-269.829,87.876C784.881,100.678,960.668,0,960.668,0h382.168v283.319L1145.201,137.04z"/>
<path id="Path_102" fill="#FFFFFF" d="M1343.836,439.414"/>
</svg>
