<?xml version="1.0" encoding="utf-8"?>
<!-- Generator: Adobe Illustrator 16.2.0, SVG Export Plug-In . SVG Version: 6.00 Build 0)  -->
<!DOCTYPE svg PUBLIC "-//W3C//DTD SVG 1.1//EN" "http://www.w3.org/Graphics/SVG/1.1/DTD/svg11.dtd">
<svg version="1.1" id="Layer_1" xmlns="http://www.w3.org/2000/svg" xmlns:xlink="http://www.w3.org/1999/xlink" x="0px" y="0px"
	 width="1274px" height="468.447px" viewBox="0 0 1274 468.447" enable-background="new 0 0 1274 468.447" xml:space="preserve">
<g id="Test" transform="translate(633 487)">
	
		<linearGradient id="Path_86_1_" gradientUnits="userSpaceOnUse" x1="-632.1938" y1="247.2988" x2="-632.2778" y2="246.3158" gradientTransform="matrix(-1274 0 0 439.59 -805380.5 -108852.3516)">
		<stop  offset="0" style="stop-color:#FFFFFF"/>
		<stop  offset="1" style="stop-color:#2F4499;stop-opacity:0.102"/>
	</linearGradient>
	<path id="Path_86" fill="url(#Path_86_1_)" d="M-633-18.553c0,0,33.54-3.649,90.14-11.77
		C-296.75-65.643,385.37-185.583,641-458.143v439.59H-633z"/>
	
		<linearGradient id="Path_87_1_" gradientUnits="userSpaceOnUse" x1="-632.6626" y1="246.7197" x2="-631.7066" y2="247.6337" gradientTransform="matrix(-1274 0 0 450.043 -805380.5 -111460.3125)">
		<stop  offset="0" style="stop-color:#FFFFFF"/>
		<stop  offset="1" style="stop-color:#2F4499;stop-opacity:0.302"/>
	</linearGradient>
	<path id="Path_87" fill="url(#Path_87_1_)" d="M-633-36.956c0,0,959.59-114.825,1274-450.044v11.771
		C385.37-202.669-296.75-82.729-542.86-47.409L-633-36.956z"/>
	
		<linearGradient id="Path_88_1_" gradientUnits="userSpaceOnUse" x1="-632.2002" y1="246.9473" x2="-631.2435" y2="247.8619" gradientTransform="matrix(-1274 0 0 450.043 -805380.5 -111455.0625)">
		<stop  offset="0" style="stop-color:#FFFFFF"/>
		<stop  offset="1" style="stop-color:#2F4499;stop-opacity:0.302"/>
	</linearGradient>
	<path id="Path_88" fill="url(#Path_88_1_)" d="M641-481.773c0,0-959.59,114.823-1274,450.043v-11.771
		c255.63-272.556,937.75-392.5,1183.859-427.819L641-481.773z"/>
</g>
</svg>
