<svg xmlns="http://www.w3.org/2000/svg" width="21.852" height="20.046" viewBox="0 0 21.852 20.046">
  <g id="Courses" transform="translate(2497.777 1706.691)">
    <g id="Group_1" data-name="Group 1" transform="translate(-2497.777 -1706.691)">
      <path id="Subtraction_3" data-name="Subtraction 3" d="M18.852,16.1H3a3,3,0,0,1-3-3V3A3,3,0,0,1,3,0H18.852a3,3,0,0,1,3,3V13.1A3,3,0,0,1,18.852,16.1ZM6.6,3.639a4.413,4.413,0,0,0,0,8.824,4.413,4.413,0,0,0,0-8.824Zm6.282,6.6v1.5h5.878v-1.5Zm0-2.957v1.5h5.878v-1.5Zm0-2.957v1.5h5.878v-1.5Z" transform="translate(0 0)" fill="#720b9b"/>
      <path id="Subtraction_2" data-name="Subtraction 2" d="M2.875,5.751A2.876,2.876,0,0,1,1.756.226a2.876,2.876,0,0,1,2.238,5.3A2.857,2.857,0,0,1,2.875,5.751ZM1.5.885V4.866L5.043,2.875Z" transform="translate(3.601 5.176)" fill="#720b9b"/>
    </g>
    <path id="Path_1" data-name="Path 1" d="M-1867.041-1322.067v1.471h10.3v-1.471h-2.978v-1.435h-4.449v1.435Z" transform="translate(-624.327 -366.05)" fill="#720b9b"/>
  </g>
</svg>
