<svg id="eye" xmlns="http://www.w3.org/2000/svg" width="19.76" height="19.76" viewBox="0 0 19.76 19.76">
  <rect id="eye-2" data-name="eye" width="19.76" height="19.76" fill="none"/>
  <g id="vuesax_bulk_frame" data-name="vuesax/bulk/frame">
    <g id="Group">
      <path id="Vector" d="M15.849,9.394a10.994,10.994,0,0,1-3.425,3.483A7.972,7.972,0,0,1,8.233,14.1C5.3,14.1,2.519,12.391.617,9.394a4.751,4.751,0,0,1,0-4.685A10.994,10.994,0,0,1,4.043,1.227,7.972,7.972,0,0,1,8.233,0c2.931,0,5.714,1.721,7.616,4.709A4.751,4.751,0,0,1,15.849,9.394Zm-4.29-2.338a3.326,3.326,0,1,0-3.326,3.326A3.322,3.322,0,0,0,11.559,7.056Z" transform="translate(1.647 2.824)" fill="#0071ff" opacity="0.4"/>
      <path id="Vector-2" data-name="Vector" d="M4.7,2.355A2.351,2.351,0,1,1,2.346,0,2.358,2.358,0,0,1,4.7,2.355Z" transform="translate(7.533 7.525)" fill="#0071ff"/>
      <path id="Vector-3" data-name="Vector" d="M0,0H19.76V19.76H0Z" fill="none" opacity="0"/>
    </g>
  </g>
</svg>
