<svg id="FontAwesome_-_Icons" data-name="FontAwesome - Icons" xmlns="http://www.w3.org/2000/svg" width="30" height="30" viewBox="0 0 30 30">
  <rect id="FontAwesome_-_Icons-2" data-name="FontAwesome - Icons" width="30" height="30" fill="none"/>
  <path id="Vector" d="M9.828,23.274c0,.12-.136.215-.308.215-.2.018-.332-.078-.332-.215,0-.12.136-.215.308-.215C9.674,23.041,9.828,23.136,9.828,23.274Zm-1.475-.406c.178.054.29.191.255.311a.277.277,0,0,1-.367.12c-.178-.036-.3-.173-.255-.293A.3.3,0,0,1,8.353,22.867Zm2.6.209c.018.12-.1.233-.272.275s-.332-.036-.35-.155c-.018-.137.1-.251.273-.293.172-.018.332.06.35.173Zm18.429-8.493a14.839,14.839,0,0,1-9.94,14.285c-.752.137-1.025-.335-1.025-.723,0-.49.018-2.982.018-5a3.551,3.551,0,0,0-1.007-2.773c3.311-.377,6.8-.837,6.8-6.6A4.665,4.665,0,0,0,22.7,10.25a5.691,5.691,0,0,0-.154-4.058c-1.238-.394-4.087,1.614-4.087,1.614a13.875,13.875,0,0,0-7.44,0s-2.849-2-4.087-1.614a5.694,5.694,0,0,0-.154,4.058,4.55,4.55,0,0,0-1.4,3.52c0,5.75,3.341,6.234,6.653,6.6a3.333,3.333,0,0,0-.948,2.014A3.116,3.116,0,0,1,6.765,21.14,3.122,3.122,0,0,0,4.478,19.6c-1.451-.018-.095.92-.095.92.972.448,1.647,2.188,1.647,2.188.871,2.678,5.018,1.781,5.018,1.781,0,1.255.018,3.3.018,3.67,0,.388-.267.861-1.025.723A14.975,14.975,0,0,1,0,14.583,14.268,14.268,0,0,1,14.5,0,14.586,14.586,0,0,1,29.383,14.583ZM6.066,20.674c.1.114.118.251.041.311-.077.078-.213.036-.308-.06-.1-.114-.118-.251-.041-.311C5.835,20.536,5.971,20.578,6.066,20.674Zm-.693-.586c.118.06.178.155.136.233a.175.175,0,0,1-.255.042c-.118-.06-.178-.155-.136-.233C5.16,20.07,5.254,20.052,5.373,20.088Zm2.05,2.229c.118.114.154.293.077.371-.077.1-.249.078-.385-.06-.136-.114-.172-.293-.077-.371C7.115,22.162,7.292,22.18,7.423,22.317ZM6.694,21.5a.274.274,0,0,1,0,.371c-.077.06-.237,0-.332-.137s-.095-.293,0-.353c.095-.078.249-.018.332.12Z" transform="translate(0 0.309)"/>
</svg>
