<svg xmlns="http://www.w3.org/2000/svg" width="504.381" height="366.838" viewBox="0 0 504.381 366.838">
  <g id="undraw_programming_re_kg9v" transform="translate(0 0)">
    <circle id="Ellipse_14" data-name="Ellipse 14" cx="17.116" cy="17.116" r="17.116" transform="translate(276.684 30.437)" fill="#f2f2f2"/>
    <path id="Path_51" data-name="Path 51" d="M648.7,494.311c25.441-19.378,37.593-51.94,29.985-83q-.283-1.158-.6-2.31c-5.043-18.438-17.521-35.963-35.706-41.854-15.269-4.947-31.936-1.143-47.866-3.11-31.271-3.862-55.514-29.163-72.572-55.654s-30.168-56.144-52.835-78.03c-37.363-36.075-98.311-43.841-144.635-20.36s-75.833,75.578-74.574,127.5,32.082,101.561,76.844,127.9c16.444,9.675,35.463,16.529,54.391,14.131,16.423-2.081,31.346-10.906,47.692-13.526,25.7-4.119,51.236,7.5,73.465,21.041s43.7,29.59,68.959,35.868C595.774,529,626.161,511.476,648.7,494.311Z" transform="translate(-222.121 -175.618)" fill="#f2f2f2"/>
    <path id="Path_52" data-name="Path 52" d="M659.086,199.333c-.558-.372-1.122-.724-1.68-1.083a243.75,243.75,0,0,0-51.482-24.956l-4.192,57.834H575.155V164.852c-1.673-.346-3.359-.673-5.045-.981v67.258H538.526a65.559,65.559,0,0,1-65.559-65.559h0c-1.692.365-3.372.756-5.051,1.173v64.386H442.191L438.2,175.98a244.144,244.144,0,0,0-52.527,27.9c-.282.192-.564.391-.84.583-1.417.994-2.814,2.006-4.205,3.032V428.138h75.815L455.1,409.58,447.73,307.688H596.188L588.816,409.58l-1.34,18.558h74.976V201.564Q660.778,200.429,659.086,199.333ZM467.916,290.86h-21.4l-3.955-54.68h25.359Zm102.194,0H534.161v-1.083a3.961,3.961,0,0,0-3.968-3.962H514.564a3.96,3.96,0,0,0-3.962,3.962v1.083H472.967V236.18H570.11Zm5.045,0V236.18h26.212l-3.955,54.68Z" transform="translate(-269.063 -163.871)" fill="#3f3d56"/>
    <path id="Path_53" data-name="Path 53" d="M206.59,598.162a185.259,185.259,0,0,0,18.026,18.558l468.329.641A185.244,185.244,0,0,0,710.971,598.8Z" transform="translate(-206.59 -319.766)" fill="#3f3d56"/>
    <path id="Path_54" data-name="Path 54" d="M702.02,503.985v54.939a2.642,2.642,0,0,0,2.64,2.641h81.414a2.643,2.643,0,0,0,2.641-2.641V503.985a2.644,2.644,0,0,0-2.641-2.638H704.66A2.644,2.644,0,0,0,702.02,503.985Z" transform="translate(-384.431 -285.013)" fill="#3f3d56"/>
    <path id="Path_55" data-name="Path 55" d="M705,505.737v53.578a1.414,1.414,0,0,0,1.411,1.411h80.056a1.414,1.414,0,0,0,1.411-1.411V505.737a1.414,1.414,0,0,0-1.411-1.414H706.411A1.414,1.414,0,0,0,705,505.737Z" transform="translate(-385.5 -286.081)" fill="#6c63ff"/>
    <path id="Path_56" data-name="Path 56" d="M699.162,602.82a1.584,1.584,0,0,0,1.246.6h87.176a1.6,1.6,0,0,0,1.568-1.933l-1.353-6.428a1.607,1.607,0,0,0-1-1.165,1.555,1.555,0,0,0-.569-.107H701.756a1.554,1.554,0,0,0-.569.107,1.607,1.607,0,0,0-1,1.165l-1.353,6.428a1.6,1.6,0,0,0,.328,1.337Z" transform="translate(-383.276 -318.194)" fill="#2f2e41"/>
    <rect id="Rectangle_28" data-name="Rectangle 28" width="2.685" height="1.611" rx="0.488" transform="translate(402.335 278.358) rotate(180)" fill="#3f3d56"/>
    <rect id="Rectangle_29" data-name="Rectangle 29" width="2.685" height="1.611" rx="0.488" transform="translate(396.965 278.358) rotate(180)" fill="#3f3d56"/>
    <rect id="Rectangle_30" data-name="Rectangle 30" width="2.685" height="1.611" rx="0.488" transform="translate(391.595 278.358) rotate(180)" fill="#3f3d56"/>
    <rect id="Rectangle_31" data-name="Rectangle 31" width="2.685" height="1.611" rx="0.488" transform="translate(386.225 278.358) rotate(180)" fill="#3f3d56"/>
    <rect id="Rectangle_32" data-name="Rectangle 32" width="2.685" height="1.611" rx="0.488" transform="translate(380.855 278.358) rotate(180)" fill="#3f3d56"/>
    <rect id="Rectangle_33" data-name="Rectangle 33" width="2.685" height="1.611" rx="0.488" transform="translate(375.486 278.358) rotate(180)" fill="#3f3d56"/>
    <rect id="Rectangle_34" data-name="Rectangle 34" width="2.685" height="1.611" rx="0.488" transform="translate(370.116 278.358) rotate(180)" fill="#3f3d56"/>
    <rect id="Rectangle_35" data-name="Rectangle 35" width="2.685" height="1.611" rx="0.488" transform="translate(364.746 278.358) rotate(180)" fill="#3f3d56"/>
    <rect id="Rectangle_36" data-name="Rectangle 36" width="2.685" height="1.611" rx="0.488" transform="translate(359.376 278.358) rotate(180)" fill="#3f3d56"/>
    <rect id="Rectangle_37" data-name="Rectangle 37" width="2.685" height="1.611" rx="0.488" transform="translate(354.006 278.358) rotate(180)" fill="#3f3d56"/>
    <rect id="Rectangle_38" data-name="Rectangle 38" width="2.685" height="1.611" rx="0.488" transform="translate(348.636 278.358) rotate(180)" fill="#3f3d56"/>
    <rect id="Rectangle_39" data-name="Rectangle 39" width="2.685" height="1.611" rx="0.488" transform="translate(343.266 278.358) rotate(180)" fill="#3f3d56"/>
    <rect id="Rectangle_40" data-name="Rectangle 40" width="2.685" height="1.611" rx="0.488" transform="translate(337.896 278.358) rotate(180)" fill="#3f3d56"/>
    <rect id="Rectangle_41" data-name="Rectangle 41" width="2.685" height="1.611" rx="0.488" transform="translate(332.526 278.358) rotate(180)" fill="#3f3d56"/>
    <rect id="Rectangle_42" data-name="Rectangle 42" width="2.685" height="1.611" rx="0.488" transform="translate(327.156 278.358) rotate(180)" fill="#3f3d56"/>
    <rect id="Rectangle_43" data-name="Rectangle 43" width="2.685" height="1.611" rx="0.488" transform="translate(321.786 278.358) rotate(180)" fill="#3f3d56"/>
    <rect id="Rectangle_44" data-name="Rectangle 44" width="2.685" height="1.611" rx="0.488" transform="translate(402.399 281.043) rotate(180)" fill="#3f3d56"/>
    <rect id="Rectangle_45" data-name="Rectangle 45" width="2.685" height="1.611" rx="0.488" transform="translate(397.029 281.043) rotate(180)" fill="#3f3d56"/>
    <rect id="Rectangle_46" data-name="Rectangle 46" width="2.685" height="1.611" rx="0.488" transform="translate(391.659 281.043) rotate(180)" fill="#3f3d56"/>
    <rect id="Rectangle_47" data-name="Rectangle 47" width="2.685" height="1.611" rx="0.488" transform="translate(386.289 281.043) rotate(180)" fill="#3f3d56"/>
    <rect id="Rectangle_48" data-name="Rectangle 48" width="2.685" height="1.611" rx="0.488" transform="translate(380.919 281.043) rotate(180)" fill="#3f3d56"/>
    <rect id="Rectangle_49" data-name="Rectangle 49" width="2.685" height="1.611" rx="0.488" transform="translate(375.549 281.043) rotate(180)" fill="#3f3d56"/>
    <rect id="Rectangle_50" data-name="Rectangle 50" width="2.685" height="1.611" rx="0.488" transform="translate(370.179 281.043) rotate(180)" fill="#3f3d56"/>
    <rect id="Rectangle_51" data-name="Rectangle 51" width="2.685" height="1.611" rx="0.488" transform="translate(364.809 281.043) rotate(180)" fill="#3f3d56"/>
    <rect id="Rectangle_52" data-name="Rectangle 52" width="2.685" height="1.611" rx="0.488" transform="translate(359.439 281.043) rotate(180)" fill="#3f3d56"/>
    <rect id="Rectangle_53" data-name="Rectangle 53" width="2.685" height="1.611" rx="0.488" transform="translate(354.069 281.043) rotate(180)" fill="#3f3d56"/>
    <rect id="Rectangle_54" data-name="Rectangle 54" width="2.685" height="1.611" rx="0.488" transform="translate(348.699 281.043) rotate(180)" fill="#3f3d56"/>
    <rect id="Rectangle_55" data-name="Rectangle 55" width="2.685" height="1.611" rx="0.488" transform="translate(343.329 281.043) rotate(180)" fill="#3f3d56"/>
    <rect id="Rectangle_56" data-name="Rectangle 56" width="2.685" height="1.611" rx="0.488" transform="translate(337.959 281.043) rotate(180)" fill="#3f3d56"/>
    <rect id="Rectangle_57" data-name="Rectangle 57" width="2.685" height="1.611" rx="0.488" transform="translate(332.589 281.043) rotate(180)" fill="#3f3d56"/>
    <rect id="Rectangle_58" data-name="Rectangle 58" width="2.685" height="1.611" rx="0.488" transform="translate(327.22 281.043) rotate(180)" fill="#3f3d56"/>
    <rect id="Rectangle_59" data-name="Rectangle 59" width="2.685" height="1.611" rx="0.488" transform="translate(321.85 281.043) rotate(180)" fill="#3f3d56"/>
    <rect id="Rectangle_60" data-name="Rectangle 60" width="21.48" height="1.611" rx="0.488" transform="translate(376.623 284.265) rotate(180)" fill="#3f3d56"/>
    <rect id="Rectangle_61" data-name="Rectangle 61" width="3.824" height="2.001" rx="1.001" transform="translate(330.538 229.964)" fill="#fff"/>
    <rect id="Rectangle_62" data-name="Rectangle 62" width="3.824" height="2.001" rx="1.001" transform="translate(351.387 229.964)" fill="#fff"/>
    <rect id="Rectangle_63" data-name="Rectangle 63" width="3.824" height="2.001" rx="1.001" transform="translate(357.294 229.964)" fill="#fff"/>
    <rect id="Rectangle_64" data-name="Rectangle 64" width="13.331" height="2.001" rx="1.001" transform="translate(336.209 229.797)" fill="#fff"/>
    <rect id="Rectangle_65" data-name="Rectangle 65" width="13.331" height="2.001" rx="1.001" transform="translate(364.007 229.797)" fill="#fff"/>
    <rect id="Rectangle_66" data-name="Rectangle 66" width="3.824" height="2.001" rx="1.001" transform="translate(336.098 234.481)" fill="#fff"/>
    <rect id="Rectangle_67" data-name="Rectangle 67" width="3.824" height="2.001" rx="1.001" transform="translate(356.947 234.481)" fill="#fff"/>
    <rect id="Rectangle_68" data-name="Rectangle 68" width="3.824" height="2.001" rx="1.001" transform="translate(362.854 234.481)" fill="#fff"/>
    <rect id="Rectangle_69" data-name="Rectangle 69" width="13.331" height="2.001" rx="1.001" transform="translate(341.769 234.314)" fill="#fff"/>
    <rect id="Rectangle_70" data-name="Rectangle 70" width="13.331" height="2.001" rx="1.001" transform="translate(369.567 234.314)" fill="#fff"/>
    <rect id="Rectangle_71" data-name="Rectangle 71" width="3.824" height="2.001" rx="1.001" transform="translate(341.658 238.998)" fill="#fff"/>
    <rect id="Rectangle_72" data-name="Rectangle 72" width="3.824" height="2.001" rx="1.001" transform="translate(362.506 238.998)" fill="#fff"/>
    <rect id="Rectangle_73" data-name="Rectangle 73" width="3.824" height="2.001" rx="1.001" transform="translate(368.414 238.998)" fill="#fff"/>
    <rect id="Rectangle_74" data-name="Rectangle 74" width="13.331" height="2.001" rx="1.001" transform="translate(347.329 238.831)" fill="#fff"/>
    <rect id="Rectangle_75" data-name="Rectangle 75" width="13.331" height="2.001" rx="1.001" transform="translate(375.126 238.831)" fill="#fff"/>
    <rect id="Rectangle_76" data-name="Rectangle 76" width="3.824" height="2.001" rx="1.001" transform="translate(347.217 243.515)" fill="#fff"/>
    <rect id="Rectangle_77" data-name="Rectangle 77" width="3.824" height="2.001" rx="1.001" transform="translate(368.065 243.515)" fill="#fff"/>
    <rect id="Rectangle_78" data-name="Rectangle 78" width="3.824" height="2.001" rx="1.001" transform="translate(373.973 243.515)" fill="#fff"/>
    <rect id="Rectangle_79" data-name="Rectangle 79" width="13.331" height="2.001" rx="1.001" transform="translate(352.888 243.348)" fill="#fff"/>
    <rect id="Rectangle_80" data-name="Rectangle 80" width="3.824" height="2.001" rx="1.001" transform="translate(351.387 261.478)" fill="#fff"/>
    <rect id="Rectangle_81" data-name="Rectangle 81" width="3.824" height="2.001" rx="1.001" transform="translate(357.294 261.478)" fill="#fff"/>
    <rect id="Rectangle_82" data-name="Rectangle 82" width="13.331" height="2.001" rx="1.001" transform="translate(364.007 261.644)" fill="#fff"/>
    <rect id="Rectangle_83" data-name="Rectangle 83" width="3.824" height="2.001" rx="1.001" transform="translate(330.538 261.478)" fill="#fff"/>
    <rect id="Rectangle_84" data-name="Rectangle 84" width="13.331" height="2.001" rx="1.001" transform="translate(336.209 261.644)" fill="#fff"/>
    <rect id="Rectangle_85" data-name="Rectangle 85" width="3.824" height="2.001" rx="1.001" transform="translate(336.098 256.96)" fill="#fff"/>
    <rect id="Rectangle_86" data-name="Rectangle 86" width="3.824" height="2.001" rx="1.001" transform="translate(356.947 256.96)" fill="#fff"/>
    <rect id="Rectangle_87" data-name="Rectangle 87" width="3.824" height="2.001" rx="1.001" transform="translate(362.854 256.96)" fill="#fff"/>
    <rect id="Rectangle_88" data-name="Rectangle 88" width="13.331" height="2.001" rx="1.001" transform="translate(341.769 257.127)" fill="#fff"/>
    <rect id="Rectangle_89" data-name="Rectangle 89" width="3.824" height="2.001" rx="1.001" transform="translate(341.658 252.443)" fill="#fff"/>
    <rect id="Rectangle_90" data-name="Rectangle 90" width="3.824" height="2.001" rx="1.001" transform="translate(362.506 252.443)" fill="#fff"/>
    <rect id="Rectangle_91" data-name="Rectangle 91" width="3.824" height="2.001" rx="1.001" transform="translate(368.414 252.443)" fill="#fff"/>
    <rect id="Rectangle_92" data-name="Rectangle 92" width="13.331" height="2.001" rx="1.001" transform="translate(347.329 252.609)" fill="#fff"/>
    <rect id="Rectangle_93" data-name="Rectangle 93" width="3.824" height="2.001" rx="1.001" transform="translate(347.217 247.926)" fill="#fff"/>
    <rect id="Rectangle_94" data-name="Rectangle 94" width="3.824" height="2.001" rx="1.001" transform="translate(368.065 247.926)" fill="#fff"/>
    <rect id="Rectangle_95" data-name="Rectangle 95" width="3.824" height="2.001" rx="1.001" transform="translate(373.973 247.926)" fill="#fff"/>
    <rect id="Rectangle_96" data-name="Rectangle 96" width="13.331" height="2.001" rx="1.001" transform="translate(352.888 248.093)" fill="#fff"/>
    <path id="Path_57" data-name="Path 57" d="M706.715,625.64l-8.557-13.527L725.018,590.7l11.087-12.283a12.283,12.283,0,0,1,20.781,4.377h0a12.283,12.283,0,0,1-7.417,15.379l-17.532,6.459Z" transform="translate(-383.045 -311.223)" fill="#ffb6b6"/>
    <path id="Path_58" data-name="Path 58" d="M398.28,500.11v65.745h46.059V500.11a2.21,2.21,0,0,0-1.558-2.115,2.035,2.035,0,0,0-.66-.1H400.5A2.22,2.22,0,0,0,398.28,500.11Zm17.975,22.59a4.917,4.917,0,1,1,9.834,0v7.628a4.917,4.917,0,1,1-9.834,0Z" transform="translate(-275.4 -283.772)" fill="#2f2e41"/>
    <path id="Path_59" data-name="Path 59" d="M398.06,600.632v6.34a1.248,1.248,0,0,0,1.237,1.244h43.866a1.244,1.244,0,0,0,1.237-1.244v-6.34Z" transform="translate(-275.321 -320.652)" fill="#3f3d56"/>
    <path id="Path_60" data-name="Path 60" d="M285.25,343.6V463.645a5.774,5.774,0,0,0,5.769,5.769H468.907a5.774,5.774,0,0,0,5.769-5.769V343.6a5.777,5.777,0,0,0-5.769-5.763H291.019a5.777,5.777,0,0,0-5.769,5.763Z" transform="translate(-234.826 -226.32)" fill="#3f3d56"/>
    <path id="Path_61" data-name="Path 61" d="M291.76,347.432V464.5a3.089,3.089,0,0,0,3.083,3.083h174.92a3.089,3.089,0,0,0,3.083-3.083V347.432a3.09,3.09,0,0,0-3.083-3.09H294.843A3.09,3.09,0,0,0,291.76,347.432Z" transform="translate(-237.163 -228.654)" fill="#fff"/>
    <path id="Path_62" data-name="Path 62" d="M342.159,605.751a1.89,1.89,0,0,0,1.487.712H447.712a1.915,1.915,0,0,0,1.872-2.308l-1.615-7.673a1.918,1.918,0,0,0-1.192-1.391,1.856,1.856,0,0,0-.68-.128H345.255a1.856,1.856,0,0,0-.679.128,1.918,1.918,0,0,0-1.192,1.391l-1.615,7.673A1.913,1.913,0,0,0,342.159,605.751Z" transform="translate(-255.1 -318.617)" fill="#2f2e41"/>
    <path id="Path_63" data-name="Path 63" d="M468.569,368.77H304.9a.651.651,0,1,1,0-1.3H468.569a.651.651,0,1,1,0,1.3Z" transform="translate(-241.645 -236.955)" fill="#3f3d56"/>
    <ellipse id="Ellipse_15" data-name="Ellipse 15" cx="3.814" cy="3.899" rx="3.814" ry="3.899" transform="translate(70.579 119.391)" fill="#3f3d56"/>
    <ellipse id="Ellipse_16" data-name="Ellipse 16" cx="3.814" cy="3.899" rx="3.814" ry="3.899" transform="translate(83.756 119.391)" fill="#3f3d56"/>
    <ellipse id="Ellipse_17" data-name="Ellipse 17" cx="3.814" cy="3.899" rx="3.814" ry="3.899" transform="translate(96.933 119.391)" fill="#3f3d56"/>
    <path id="Path_64" data-name="Path 64" d="M542.578,351.622h-9.359a.709.709,0,0,0,0,1.417h9.359a.708.708,0,1,0,0-1.417Z" transform="translate(-323.589 -231.267)" fill="#3f3d56"/>
    <path id="Path_65" data-name="Path 65" d="M542.568,355.772h-9.359a.708.708,0,1,0,0,1.417h9.359a.708.708,0,1,0,0-1.417Z" transform="translate(-323.58 -232.757)" fill="#3f3d56"/>
    <path id="Path_66" data-name="Path 66" d="M542.578,359.922h-9.359a.709.709,0,0,0,0,1.417h9.359a.708.708,0,1,0,0-1.417Z" transform="translate(-323.589 -234.246)" fill="#3f3d56"/>
    <path id="Path_67" data-name="Path 67" d="M897.527,582.909a4.113,4.113,0,0,0,3.964,2.776l16.982-.437a4.057,4.057,0,0,0,3.834-2.985l2.4-25.7a6.279,6.279,0,0,0,2.717.558,6.193,6.193,0,0,0-.311-12.383,5.248,5.248,0,0,0-1.113.116,4.2,4.2,0,0,0-3.124-1.348l-26.123.675a3.752,3.752,0,0,0-.644.08,4.08,4.08,0,0,0-3.124,5.3ZM925.2,554.821l1.71-6.124a4.171,4.171,0,0,0,.013-2.163c.083,0,.156-.04.239-.04a4.43,4.43,0,1,1,.207,8.857,4.17,4.17,0,0,1-2.17-.53Z" transform="translate(-452.907 -300.147)" fill="#2f2e41"/>
    <path id="Path_68" data-name="Path 68" d="M897.978,544.263c.557,3.182,6.814,5.419,14.337,5.03,6.919-.319,12.576-2.748,13.612-5.627a3.863,3.863,0,0,0-1.182-.158l-26.123.675A3.746,3.746,0,0,0,897.978,544.263Z" transform="translate(-454.773 -300.147)" fill="#3f3d56"/>
    <path id="Path_69" data-name="Path 69" d="M922.189,579.833a.316.316,0,0,0,.1-.043l3.688-2.414a.32.32,0,0,0,0-.536l-3.833-2.511a.32.32,0,0,0-.351.536l3.424,2.242-3.278,2.146a.32.32,0,0,0,.254.579Z" transform="translate(-463.268 -311.192)" fill="#6c63ff"/>
    <path id="Path_70" data-name="Path 70" d="M911.043,580.252a.321.321,0,0,0,.081-.589l-3.4-1.949,3.286-2.441a.32.32,0,1,0-.382-.514l-3.679,2.732a.32.32,0,0,0,.032.535l3.824,2.192A.32.32,0,0,0,911.043,580.252Z" transform="translate(-457.947 -311.342)" fill="#6c63ff"/>
    <path id="Path_71" data-name="Path 71" d="M918.771,581.077a.307.307,0,0,0,.088-.037.32.32,0,0,0,.107-.441l-5.228-8.6a.321.321,0,0,0-.548.334l5.228,8.6A.321.321,0,0,0,918.771,581.077Z" transform="translate(-460.217 -310.321)" fill="#6c63ff"/>
    <rect id="Rectangle_97" data-name="Rectangle 97" width="32.513" height="6.952" rx="3.264" transform="translate(134.223 167.2)" fill="#6c63ff"/>
    <rect id="Rectangle_98" data-name="Rectangle 98" width="65.537" height="6.952" rx="3.264" transform="translate(117.711 181.105)" fill="#e6e6e6"/>
    <rect id="Rectangle_99" data-name="Rectangle 99" width="65.537" height="6.952" rx="3.264" transform="translate(117.711 195.01)" fill="#e6e6e6"/>
    <path id="Path_72" data-name="Path 72" d="M497.3,520.775l.139.439.007.015,4.183,12.717,4.812,14.655,9.053,27.54.088,4.278v.015l.673,34.414-1.865,4.666,2.1,7.649s-.965-11.562-6.143-4.922c-2.932,3.773-6.362,7.635-9.178,11.254q6.154,2.49,12.5,4.5c.914.293,1.836.57,2.757.848l.592.175a171.069,171.069,0,0,0,43.174,6.94c.76.022,1.506.036,2.23.051.256.007.5.015.753.015.819.007,1.631.015,2.45.015q2.479,0,4.936-.073a171.06,171.06,0,0,0,35.957-4.863c-.08-4.863-.3-10.545-.614-16.615-.146-2.976-3.43-6.2-3.627-9.316-.139-2.34,2.808-4.541,2.655-6.918-.995-14.633-2.238-9.016-3.159-19.378q-.143-1.525-.263-2.918c-.592-6.655-1-10.816-1-10.816l3.934-24.8,6.179-38.933-.475-.783-.534-.263-32.593-16.132-1.77-4.534a7.038,7.038,0,0,0-6.5-4.453l-21.47-.088a7.007,7.007,0,0,0-5.711,2.9l-5.814,8.051Z" transform="translate(-310.945 -279.203)" fill="#3f3d56"/>
    <path id="Path_73" data-name="Path 73" d="M507.879,583.983l-4.864,10.406L499.7,601.5l-5.711,29.9-2.859,3.035-2.449-10.743-25.64,5.693c-.841-4.673-.225.158-.744-4.968.146-.146.3-.293.453-.439.41-.38.753-.739.746-1.082-.293-17.682.585-47.774,7.912-66.005a38.494,38.494,0,0,1,4.5-8.4c.146-.2.285-.395.424-.592,3.378-4.731,5.514-9.39,8.541-12.7v-.007a.339.339,0,0,0,.051-.051.1.1,0,0,0,.029-.022l20.8-11.028.892,25.068.636,18.019Z" transform="translate(-298.377 -293.174)" fill="#3f3d56"/>
    <path id="Path_74" data-name="Path 74" d="M650.391,587.082l6.074,13,2.12,4.526,5.71,29.9,2.85,3.027,2.455-10.741,1.154-.237,20.807-4.309,6.065,19.261a11.528,11.528,0,0,0-2.091-14.427c-.414-.375-.759-.74-.749-1.085.345-20.8-.927-58.773-12.415-74.4-3.649-4.96-5.838-9.9-9.023-13.352-.01-.01-.01-.02-.02-.02l-7.751-12.691-.473-.779-.532-.266Z" transform="translate(-365.898 -293.318)" fill="#3f3d56"/>
    <circle id="Ellipse_5" data-name="Ellipse 5" cx="28.564" cy="28.564" r="28.564" transform="translate(219.131 142.722)" fill="#ffb6b6"/>
    <path id="Path_75" data-name="Path 75" d="M613.605,387.528a2.41,2.41,0,0,0-1.724-.763l.429-1.192a2.261,2.261,0,0,0-2.539-3.013l-1.564.3.147-1.045a2.265,2.265,0,0,0-3.032-2.449,2.414,2.414,0,0,1-2.077-.147,2.465,2.465,0,0,1-1.231-1.673l-.545-2.628-.058-.141c-2.654-4.423-7.757-7.641-14-8.821-5.558-1.058-11.257-.519-16.75-.013-2.18.205-4.641.436-6.692,1.692a5.853,5.853,0,0,0-2.917,5.4c-5.417-1.66-11.225,1.654-14.1,5.833-3.41,4.974-3.968,11.205-4.058,16.077-.244,11.526,2.135,20.956,7.051,28.033.359.513.449,1.583,1.16,1.942l-.147-.237c.795.4,1.6,1.038,1.3,1.724-.865,1.974,4.885,6.34,8.936,7.782,7.391,2.635,17.218,2.41,24.129,1.462l.244-1.635c2.494-.34,4.25-.987,4.744-2,.872-.744,1.615-1.41,2.263-2.026l.006-.006c.013-.013.038-.032.051-.045,3.122-2.994,3.846-4.7,4.173-7.295a20.928,20.928,0,0,0-.814-7.455c12.013,1.859-4.731-12.8,6.462-15.628a3.484,3.484,0,0,1,.391-.1c.327-.077.654-.154.968-.244a16.955,16.955,0,0,0,4.308-1.84c3.128-1.9,4.16-4.43,5.776-7.276a2.2,2.2,0,0,0-.289-2.583Z" transform="translate(-327.304 -236.194)" fill="#2f2e41"/>
    <path id="Path_76" data-name="Path 76" d="M645.259,602.235c-.006,1.122-.019,2.692-.071,4.635q-.01.4-.019.827c-.083,3.571-.167,6.564-.3,9.891-.006.231-.013.455-.026.686-.18,4.641-.462,10.045-.949,18.6-.9,15.808-2.481,2.173-4.064,7.718-.077.276-.16.6-.237.987a17.89,17.89,0,0,1-1.205,4.058c-.84.5-1.705.981-2.558,1.462-2.43,1.353-4.9,2.654-7.385,3.891-1.4.692-2.8,1.372-4.212,2.026-.224.1-.442.205-.66.3a173.657,173.657,0,0,1-22.276,8.5c-1.487.449-2.968.885-4.468,1.289-1.564.436-3.128.846-4.712,1.231a171.089,171.089,0,0,1-35.956,4.865c-1.635.051-3.282.07-4.936.07-.821,0-1.628-.006-2.449-.013-.25,0-.5-.006-.75-.013-.724-.019-1.474-.032-2.231-.051a170.945,170.945,0,0,1-43.174-6.942l-.6-.173c-.923-.282-1.84-.558-2.756-.853q-6.346-2.01-12.507-4.5-4.7-1.894-9.3-4.064a.217.217,0,0,1-.077-.038c-.641-.295-1.289-.6-1.93-.917-.083-.045-.173-.09-.263-.135q-3.587-1.75-7.1-3.667c-1.968-4.519-4.737-5.385-6.455-9.359a16.586,16.586,0,0,1-1.077-3.68c0-.013-.006-.026-.006-.045.18,2.385-.763-4.231-.006-.026-.006-.077-.013-.16-.019-.256-.019-.231-.045-.513-.083-.865-2.2-21.468-2.058-46.02-3.013-66.251q-.1-1.962-.2-3.756c-.019-.4-.045-.788-.071-1.173.045-.115.1-.237.154-.353a.638.638,0,0,1,.045-.1,1.049,1.049,0,0,1,.064-.115l.045-.064a.582.582,0,0,1,.032-.064c.058-.09.122-.186.192-.276.032-.038.058-.07.09-.1a.518.518,0,0,1,.077-.09.408.408,0,0,1,.07-.083c.026-.026.051-.058.083-.09a.2.2,0,0,1,.051-.051,1.307,1.307,0,0,1,.167-.16,6.166,6.166,0,0,1,.731-.577c.09-.058.186-.115.276-.18a12.264,12.264,0,0,1,2.032-.974c.244-.09.487-.173.75-.263.1-.026.186-.058.282-.09.141-.045.282-.09.43-.122.731-.218,1.519-.4,2.372-.577.1-.019.212-.038.321-.064.154-.032.314-.058.474-.083l.667-.115c1.9-.3,4.064-.526,6.449-.673l.673-.038.795-.038c.224-.013.455-.019.686-.026s.455-.019.692-.026c.647-.019,1.314-.038,1.994-.051,1.936-.038,3.974-.026,6.115.019.994.026,2.006.051,3.045.1.071,0,.135.006.2.006.9.032,1.814.071,2.75.122.654.032,1.314.064,1.974.1.622.038,1.25.077,1.885.122.494.026.987.064,1.487.1.423.032.846.064,1.269.09l.577.038c.314.026.628.045.949.077l2.128.173,2.16.192c.724.064,1.455.135,2.186.205l.218.019c.667.071,1.333.135,2.006.205.154.013.314.026.468.045.642.064,1.3.14,1.944.209l.6.064c.507.055,1.007.1,1.518.163.673.077,1.359.147,2.026.237.519.058,1.038.115,1.558.18.814.1,1.641.2,2.468.308.314.038.628.077.942.122,2.359.295,4.744.622,7.167.962,3.673.519,7.4,1.083,11.16,1.692s7.547,1.252,11.353,1.93c.962.173,1.923.346,2.891.526l1.308.25c.744.135,1.487.276,2.231.417s1.487.282,2.231.43l2.66.519c5.827,1.154,11.622,2.385,17.276,3.673.93.211,1.859.43,2.782.641q2.769.644,5.487,1.308c.5.115.994.237,1.487.359,1.231.308,2.462.615,3.673.93l.212.058c.891.218,1.763.442,2.635.673q3.087.808,6.071,1.635,1.981.548,3.917,1.109c1.93.558,3.821,1.122,5.66,1.692.455.141.91.282,1.359.417,1.346.417,2.673.84,3.962,1.263,1.026.333,2.026.673,3.013,1.013s1.955.679,2.9,1.019c.609.218,1.212.449,1.814.667.865.321,1.718.641,2.551.962.256.1.506.2.756.295.16.07.314.128.468.192.3.122.609.237.9.359s.6.237.891.365.583.237.865.359.57.237.853.365c.237.1.468.2.692.3.455.2.91.4,1.353.6.218.1.436.2.654.3l.5.231c.07.038.141.07.212.1.16.077.327.16.487.237.372.173.737.359,1.1.532.481.244.949.487,1.4.724s.9.487,1.32.724c.071.038.135.077.205.115.1.051.192.109.288.16.327.186.641.378.955.564.615.378,1.2.75,1.744,1.122.122.083.237.167.359.244.4.288.788.57,1.147.859,0,.006,0,.006.006.006.122.09.237.186.353.276.1.09.2.167.295.256.333.288.641.564.923.846a3.63,3.63,0,0,1,.269.276.776.776,0,0,1,.1.1c.128.128.244.256.353.385a.357.357,0,0,1,.045.058c.154.18.295.359.43.538.064.09.135.18.192.269.077.109.154.224.218.333.058.09.109.186.16.276a4.659,4.659,0,0,1,.346.724,3.352,3.352,0,0,1,.173.526,3.748,3.748,0,0,1,.109.519Z" transform="translate(-296.54 -306.437)" fill="#2f2e41"/>
    <path id="Path_77" data-name="Path 77" d="M645.255,602.238c-.006,1.122-.019,2.692-.071,4.635-.006.269-.019.545-.026.827-.064,2.724-.16,6.09-.295,9.891-.006.231-.013.455-.026.686-.18,4.641-.462,10.045-.949,18.6-.9,15.808-2.481,2.173-4.064,7.718-4.4-2.705-9.218-5.539-14.372-8.449q-1.394-.788-2.814-1.583c-10.308-5.75-21.821-11.776-33.84-17.744-.474-.237-.955-.474-1.43-.705-27.533-13.609-57.584-26.847-81.931-35.68-4.7-1.705-9.186-3.244-13.4-4.6a148.882,148.882,0,0,0-22.475-5.686c-6.154-.9-10.4-.577-12.122,1.276q-.1-1.961-.2-3.756-.038-.6-.077-1.173c.04-.105.091-.206.141-.308.007-.015.012-.03.02-.045a.641.641,0,0,1,.045-.1,1.038,1.038,0,0,1,.064-.115.679.679,0,0,1,.077-.128c.058-.09.122-.186.192-.276a2.249,2.249,0,0,1,.167-.192.41.41,0,0,1,.071-.083c.026-.026.051-.058.083-.09a.193.193,0,0,1,.051-.051,1.305,1.305,0,0,1,.167-.16,6.166,6.166,0,0,1,.731-.577c.09-.058.186-.115.276-.18a12.262,12.262,0,0,1,2.032-.974c.244-.09.487-.173.75-.263.1-.026.186-.058.282-.09.141-.045.282-.09.43-.122.731-.218,1.519-.4,2.372-.577.256-.051.526-.1.795-.147l.667-.115c1.9-.3,4.064-.526,6.449-.673l.673-.038.795-.038c.224-.013.455-.019.686-.026s.455-.019.692-.026c.647-.019,1.314-.038,1.994-.051,1.936-.032,3.974-.019,6.115.026.994.019,2.006.051,3.045.1.064,0,.135.006.2.006.9.026,1.821.071,2.75.115.654.032,1.314.064,1.974.1.622.038,1.25.077,1.885.122.494.026.987.064,1.487.1.423.032.846.064,1.269.09l1.526.115,2.128.173,2.16.192c.724.064,1.455.135,2.186.205l.218.019c.667.071,1.333.135,2.006.205q5.6.567,11.519,1.327,3.539.452,7.167.968c3.673.519,7.4,1.083,11.16,1.686s7.547,1.252,11.353,1.929c.962.173,1.923.346,2.891.526q1.769.327,3.539.667c.744.141,1.487.282,2.231.429l2.66.519c5.827,1.154,11.622,2.385,17.276,3.673.93.212,1.859.429,2.782.641q2.769.644,5.487,1.308c.5.122.994.244,1.487.365q1.856.462,3.673.923v.006c.07.013.141.032.212.051.885.224,1.763.449,2.635.68q3.087.808,6.071,1.628c1.321.372,2.628.737,3.917,1.109,1.93.564,3.821,1.128,5.66,1.692.455.141.91.282,1.359.417q2.019.635,3.962,1.263c1.026.333,2.026.673,3.013,1.013s1.955.68,2.9,1.019c.615.218,1.218.442,1.814.66.872.321,1.718.641,2.551.968.256.1.506.2.756.295.468.18.923.365,1.372.551.3.115.6.237.891.365s.583.237.865.359.571.237.853.365c.237.1.468.2.692.3.455.2.91.4,1.353.6.218.1.436.2.654.3l.5.231c.07.038.141.07.212.1.545.256,1.071.513,1.583.769.481.244.949.487,1.4.724.532.282,1.038.558,1.526.84.1.051.192.109.289.16.327.186.641.378.955.564.615.378,1.2.75,1.744,1.122s1.038.737,1.506,1.1c0,.006,0,.006.006.006.224.18.442.359.647.532.333.288.641.564.923.846a3.642,3.642,0,0,1,.269.276.768.768,0,0,1,.1.1c.135.147.269.295.4.442.154.18.295.359.43.539.064.09.135.179.192.269.077.109.154.224.218.333.058.09.109.186.16.276a4.659,4.659,0,0,1,.346.724,3.872,3.872,0,0,1,.173.526A3.746,3.746,0,0,1,645.255,602.238Z" transform="translate(-296.536 -306.44)" opacity="0.2"/>
  </g>
</svg>
