<svg id="Hicon_Bold_Category" data-name="Hicon / Bold / Category" xmlns="http://www.w3.org/2000/svg" width="38" height="38" viewBox="0 0 38 38">
  <g id="Category">
    <path id="Vector" d="M0,4.75a7.9,7.9,0,0,1,.241-2.8A3.167,3.167,0,0,1,1.955.241,7.9,7.9,0,0,1,4.75,0a7.9,7.9,0,0,1,2.8.241A3.167,3.167,0,0,1,9.259,1.955,7.9,7.9,0,0,1,9.5,4.75a7.9,7.9,0,0,1-.241,2.8A3.167,3.167,0,0,1,7.545,9.259a7.9,7.9,0,0,1-2.8.241,7.9,7.9,0,0,1-2.8-.241A3.167,3.167,0,0,1,.241,7.545,7.9,7.9,0,0,1,0,4.75Z" transform="translate(6.333 6.333)" fill="#720b9b"/>
    <path id="Vector-2" data-name="Vector" d="M15.833,4.75a7.9,7.9,0,0,1,.241-2.8A3.167,3.167,0,0,1,17.788.241,7.9,7.9,0,0,1,20.583,0a7.9,7.9,0,0,1,2.8.241,3.167,3.167,0,0,1,1.714,1.714,7.9,7.9,0,0,1,.241,2.8,7.9,7.9,0,0,1-.241,2.8,3.167,3.167,0,0,1-1.714,1.714,7.9,7.9,0,0,1-2.8.241,7.9,7.9,0,0,1-2.8-.241,3.167,3.167,0,0,1-1.714-1.714,7.9,7.9,0,0,1-.241-2.8Z" transform="translate(6.333 6.333)" fill="#720b9b"/>
    <path id="Vector-3" data-name="Vector" d="M0,20.583a7.9,7.9,0,0,1,.241-2.8,3.167,3.167,0,0,1,1.714-1.714,7.9,7.9,0,0,1,2.8-.241,7.9,7.9,0,0,1,2.8.241,3.167,3.167,0,0,1,1.714,1.714,7.9,7.9,0,0,1,.241,2.8,7.9,7.9,0,0,1-.241,2.8,3.167,3.167,0,0,1-1.714,1.714,7.9,7.9,0,0,1-2.8.241,7.9,7.9,0,0,1-2.8-.241A3.167,3.167,0,0,1,.241,23.378,7.9,7.9,0,0,1,0,20.583Z" transform="translate(6.333 6.333)" fill="#720b9b"/>
    <path id="Vector-4" data-name="Vector" d="M15.833,20.583a7.9,7.9,0,0,1,.241-2.8,3.167,3.167,0,0,1,1.714-1.714,7.9,7.9,0,0,1,2.8-.241,7.9,7.9,0,0,1,2.8.241,3.167,3.167,0,0,1,1.714,1.714,7.9,7.9,0,0,1,.241,2.8,7.9,7.9,0,0,1-.241,2.8,3.167,3.167,0,0,1-1.714,1.714,7.9,7.9,0,0,1-2.8.241,7.9,7.9,0,0,1-2.8-.241,3.167,3.167,0,0,1-1.714-1.714,7.9,7.9,0,0,1-.241-2.8Z" transform="translate(6.333 6.333)" fill="#720b9b"/>
  </g>
</svg>
