<svg id="Hicon_Linear_Foreign" data-name="Hicon / Linear / Foreign" xmlns="http://www.w3.org/2000/svg" width="24" height="24" viewBox="0 0 24 24">
  <g id="Foreign">
    <path id="Vector" d="M17.993,10.185c.007.6.007,1.265.007,2,0,3.75,0,5.625-.955,6.939a5,5,0,0,1-1.106,1.106c-1.314.955-3.189.955-6.939.955s-5.625,0-6.939-.955A5,5,0,0,1,.955,19.124C0,17.809,0,15.934,0,12.185S0,6.56.955,5.246A5,5,0,0,1,2.061,4.14C3.375,3.185,5.25,3.185,9,3.185c.735,0,1.4,0,2,.007M8.536,12.034,19.827.742l.025-.019M13.486.013,15.968,0c1.979-.009,2.969-.013,3.646.511a2.477,2.477,0,0,1,.238.21m0,0a2.48,2.48,0,0,1,.2.233c.524.677.52,1.667.511,3.646l-.011,2.482" transform="translate(2 1)" fill="none" stroke="#2d264b" stroke-linecap="round" stroke-width="1.5"/>
  </g>
</svg>
