<svg id="Hicon_Bold_Heart_2" data-name="Hicon / Bold / Heart 2" xmlns="http://www.w3.org/2000/svg" width="32" height="30" viewBox="0 0 32 30">
  <g id="Heart_2" data-name="Heart 2">
    <path id="Vector" d="M18.561,1.91c2.678-1.769,7-3.443,10.737.525C38.164,11.852,22.96,30,16,30S-6.164,11.852,2.7,2.435C6.436-1.533,10.761.14,13.439,1.91a4.749,4.749,0,0,0,5.122,0Zm-9.3,4.259a1.266,1.266,0,0,0,.7-1.613A1.186,1.186,0,0,0,8.41,3.832a7.492,7.492,0,0,0-2.622,1.8A8.728,8.728,0,0,0,3.653,9.26a1.26,1.26,0,0,0,.793,1.563A1.192,1.192,0,0,0,5.947,10,6.209,6.209,0,0,1,7.477,7.409,5.108,5.108,0,0,1,9.262,6.168Z" transform="translate(0 0)" fill="#720b9b" fill-rule="evenodd"/>
  </g>
</svg>
