<svg id="About_Gh" xmlns="http://www.w3.org/2000/svg" width="24" height="24" viewBox="0 0 24 24">
  <rect id="FontAwesome_-_Icons" data-name="FontAwesome - Icons" width="24" height="24" fill="none"/>
  <path id="Vector" d="M7.777,18.253c0,.094-.108.169-.244.169-.155.014-.262-.061-.262-.169s.108-.169.244-.169S7.777,18.145,7.777,18.253Zm-1.167-.319c.141.042.23.15.2.244a.22.22,0,0,1-.291.094c-.141-.028-.234-.136-.2-.23A.241.241,0,0,1,6.609,17.934Zm2.058.164c.014.094-.08.183-.216.216s-.262-.028-.277-.122.08-.2.216-.23c.136-.014.262.047.277.136ZM23.25,11.438a11.644,11.644,0,0,1-7.866,11.2c-.6.108-.811-.263-.811-.567,0-.384.014-2.339.014-3.919a2.772,2.772,0,0,0-.8-2.175c2.62-.3,5.381-.656,5.381-5.18a3.644,3.644,0,0,0-1.209-2.761,4.427,4.427,0,0,0-.122-3.183c-.98-.309-3.234,1.266-3.234,1.266a11.074,11.074,0,0,0-5.887,0S6.464,4.552,5.484,4.856a4.429,4.429,0,0,0-.122,3.183A3.553,3.553,0,0,0,4.256,10.8c0,4.509,2.644,4.889,5.264,5.18a2.605,2.605,0,0,0-.75,1.58,2.478,2.478,0,0,1-3.417-.98A2.474,2.474,0,0,0,3.544,15.37c-1.148-.014-.075.722-.075.722.769.352,1.3,1.716,1.3,1.716.689,2.1,3.97,1.4,3.97,1.4,0,.984.014,2.587.014,2.878s-.211.675-.811.567A11.752,11.752,0,0,1,0,11.437,11.24,11.24,0,0,1,11.475,0,11.494,11.494,0,0,1,23.25,11.437ZM4.8,16.214c.08.089.094.2.033.244s-.169.028-.244-.047-.094-.2-.033-.244S4.725,16.139,4.8,16.214Zm-.548-.459c.094.047.141.122.108.183a.139.139,0,0,1-.2.033c-.094-.047-.141-.122-.108-.183S4.158,15.727,4.252,15.755ZM5.873,17.5c.094.089.122.23.061.291s-.2.061-.3-.047c-.108-.089-.136-.23-.061-.291S5.77,17.4,5.873,17.5ZM5.3,16.861a.214.214,0,0,1,0,.291c-.061.047-.187,0-.262-.108s-.075-.23,0-.277.2-.014.262.094Z" transform="translate(0 0.375)" fill="#6e5494"/>
</svg>
