<svg xmlns="http://www.w3.org/2000/svg" width="24" height="24" viewBox="0 0 24 24">
  <g id="About_Tw" transform="translate(0)">
    <rect id="FontAwesome_-_Icons" data-name="FontAwesome - Icons" width="24" height="24" fill="none"/>
    <path id="Vector" d="M21.533,4.858c.015.213.015.426.015.64A13.9,13.9,0,0,1,7.553,19.492,13.9,13.9,0,0,1,0,17.284a10.175,10.175,0,0,0,1.188.061,9.851,9.851,0,0,0,6.107-2.1,4.927,4.927,0,0,1-4.6-3.411,6.2,6.2,0,0,0,.929.076,5.2,5.2,0,0,0,1.294-.167A4.919,4.919,0,0,1,.975,6.914V6.853A4.954,4.954,0,0,0,3.2,7.477,4.926,4.926,0,0,1,1.675.9,13.981,13.981,0,0,0,11.817,6.046,5.553,5.553,0,0,1,11.7,4.919a4.923,4.923,0,0,1,8.513-3.365A9.684,9.684,0,0,0,23.33.366a4.905,4.905,0,0,1-2.162,2.711A9.861,9.861,0,0,0,24,2.315a10.574,10.574,0,0,1-2.467,2.543Z" transform="translate(0 2.254)" fill="#1da1f2"/>
  </g>
</svg>
