<svg id="About_Wp" xmlns="http://www.w3.org/2000/svg" width="24" height="24" viewBox="0 0 24 24">
  <rect id="FontAwesome_-_Icons" data-name="FontAwesome - Icons" width="24" height="24" fill="none"/>
  <path id="Vector" d="M17.855,3.052A10.447,10.447,0,0,1,21,10.411,10.506,10.506,0,0,1,10.5,20.817h0a10.375,10.375,0,0,1-4.973-1.266L0,21l1.477-5.391A10.408,10.408,0,0,1,17.855,3.052ZM10.5,19.064a8.746,8.746,0,0,0,8.747-8.653,8.683,8.683,0,0,0-2.63-6.117A8.572,8.572,0,0,0,10.5,1.758,8.655,8.655,0,0,0,3.169,15.009l.206.328L2.5,18.53l3.272-.858.314.188a8.634,8.634,0,0,0,4.406,1.2ZM15.731,12.9a2.175,2.175,0,0,1-.15,1.238,2.663,2.663,0,0,1-1.753,1.238,5.088,5.088,0,0,1-3.122-.652,11.619,11.619,0,0,1-4.444-3.928A5.094,5.094,0,0,1,5.2,8.1a2.922,2.922,0,0,1,.909-2.17.963.963,0,0,1,.694-.323c.173,0,.347,0,.5.009s.375-.061.586.445.736,1.8.8,1.931a.482.482,0,0,1,.023.455c-.5.994-1.031.961-.764,1.42a7.078,7.078,0,0,0,3.539,3.094c.258.131.413.108.563-.066s.652-.759.825-1.022.347-.22.586-.131,1.519.712,1.777.844.431.192.492.309Z" transform="translate(1 1.5)" fill="#25d366"/>
</svg>
