<svg id="Hicon_Bold_Document_Justify_Center_2" data-name="Hicon / Bold / Document Justify Center 2" xmlns="http://www.w3.org/2000/svg" width="38" height="38" viewBox="0 0 38 38">
  <g id="Document_Justify_Center_2" data-name="Document Justify Center 2">
    <path id="Vector" d="M3.263,1.512C5.344,0,8.313,0,14.25,0s8.906,0,10.987,1.512a7.917,7.917,0,0,1,1.751,1.751C28.5,5.344,28.5,8.313,28.5,14.25v3.167c0,5.937,0,8.906-1.512,10.987a7.917,7.917,0,0,1-1.751,1.751c-2.081,1.512-5.05,1.512-10.987,1.512s-8.906,0-10.987-1.512A7.917,7.917,0,0,1,1.512,28.4C0,26.322,0,23.354,0,17.417V14.25C0,8.313,0,5.344,1.512,3.263A7.917,7.917,0,0,1,3.263,1.512Zm4.653,6.8a1.188,1.188,0,0,0,0,2.375H20.583a1.188,1.188,0,0,0,0-2.375Zm0,6.333a1.188,1.188,0,0,0,0,2.375H20.583a1.187,1.187,0,0,0,0-2.375Zm0,6.333a1.188,1.188,0,0,0,0,2.375H20.583a1.187,1.187,0,0,0,0-2.375Z" transform="translate(4.75 3.167)" fill="#720b9b" fill-rule="evenodd"/>
  </g>
</svg>
