<svg xmlns="http://www.w3.org/2000/svg" width="18.96" height="20.704" viewBox="0 0 18.96 20.704">
  <g id="Hicon_Linear_Calender_1" data-name="Hicon / Linear / Calender 1" transform="translate(0.75)">
    <g id="Calender_1" data-name="Calender 1">
      <path id="Vector" d="M0,10.977c0-1.166,0-2.15.028-2.992a6.987,6.987,0,0,1,.9-3.929A4.921,4.921,0,0,1,2,2.952,6.5,6.5,0,0,1,5.82,2.029C6.639,2,7.6,2,8.73,2s2.091,0,2.91.029a6.5,6.5,0,0,1,3.821.924,4.921,4.921,0,0,1,1.073,1.1,6.987,6.987,0,0,1,.9,3.929c.028.842.028,1.826.028,2.992s0,2.15-.028,2.992a6.987,6.987,0,0,1-.9,3.929A4.921,4.921,0,0,1,15.461,19a6.5,6.5,0,0,1-3.821.924c-.819.029-1.776.029-2.91.029-3.637,0-5.456,0-6.731-.952A4.921,4.921,0,0,1,.926,17.9C0,16.587,0,14.717,0,10.977Z" transform="translate(0 0)" fill="none" stroke="#656565" stroke-width="1.5"/>
      <path id="Vector-2" data-name="Vector" d="M5.82,11.972H11.64m0-8.979V0M5.82,2.993V0M11.64,19.925a12.628,12.628,0,0,1,.06-1.749,4.921,4.921,0,0,1,4.031-4.147,11.607,11.607,0,0,1,1.7-.061M.029,7.982h17.4" transform="translate(0)" fill="none" stroke="#656565" stroke-width="1.5"/>
    </g>
  </g>
</svg>
