<svg id="file-question-alt" xmlns="http://www.w3.org/2000/svg" width="30" height="30" viewBox="0 0 30 30">
  <path id="Icon" d="M13.75,15.628a2.81,2.81,0,0,1,5.462.937c0,1.874-2.81,2.81-2.81,2.81" transform="translate(6.25 3.75)" fill="none" stroke="#fff89b" stroke-linecap="round" stroke-linejoin="round" stroke-width="2"/>
  <path id="Icon-2" data-name="Icon" d="M16.25,22.5h.013m-5.013,0H6c-2.1,0-3.15,0-3.952-.409A3.75,3.75,0,0,1,.409,20.452C0,19.65,0,18.6,0,16.5V6C0,3.9,0,2.85.409,2.048A3.75,3.75,0,0,1,2.048.409C2.85,0,3.9,0,6,0h4m0,0,7.5,7.5m0,0H14a6.211,6.211,0,0,1-2.635-.272,2.5,2.5,0,0,1-1.093-1.093A6.211,6.211,0,0,1,10,3.5V0m7.5,7.5V9.375M8.75,17.5H5m5-5H5m1.25-5H5" transform="translate(6.25 3.75)" fill="none" stroke="#fff89b" stroke-linecap="round" stroke-linejoin="round" stroke-width="2"/>
</svg>
