<svg id="Edit" xmlns="http://www.w3.org/2000/svg" width="24" height="24" viewBox="0 0 24 24">
  <g id="Edit_Square" data-name="Edit Square">
    <path id="Vector" d="M11.9,2c1.333-1.333,2-2,2.828-2s1.5.667,2.828,2,2,2,2,2.828-.667,1.5-2,2.828l-5.372,5.372a4.216,4.216,0,0,1-1.044.884,4.216,4.216,0,0,1-1.343.263c-2.293.255-3.44.382-4.12-.3s-.552-1.826-.3-4.12a4.217,4.217,0,0,1,.263-1.343,4.217,4.217,0,0,1,.884-1.044Z" transform="translate(2 2)" fill="none" stroke="#f50" stroke-linecap="round" stroke-width="1.5"/>
    <path id="Vector-2" data-name="Vector" d="M17.993,12.171c-.03,2.464-.18,3.882-.948,4.939a5,5,0,0,1-1.106,1.106c-1.314.955-3.189.955-6.939.955s-5.625,0-6.939-.955A5,5,0,0,1,.955,17.11C0,15.8,0,13.921,0,10.171S0,4.547.955,3.232A5,5,0,0,1,2.061,2.126C3.118,1.359,4.536,1.208,7,1.179M17.556,7.657,11.9,2" transform="translate(2 2)" fill="none" stroke="#f50" stroke-linecap="round" stroke-width="1.5"/>
  </g>
</svg>
