<svg id="EmailIcon" xmlns="http://www.w3.org/2000/svg" width="24" height="24" viewBox="0 0 24 24">
  <g id="Message_36" data-name="Message 36">
    <path id="Vector" d="M.446,6.9a18.864,18.864,0,0,1,.768-3.939,3.8,3.8,0,0,1,.329-.65A5,5,0,0,1,3.674.455C4.666,0,5.9,0,8.37,0H9.994c2.469,0,3.7,0,4.7.455a5,5,0,0,1,2.132,1.856,3.668,3.668,0,0,1,.257.479,16.679,16.679,0,0,1,.84,4.109c.436,3.14.654,4.711.175,5.93a5,5,0,0,1-2.2,2.528C14.75,16,13.165,16,9.994,16H8.37c-3.171,0-4.756,0-5.9-.643a5,5,0,0,1-2.2-2.528C-.208,11.61.01,10.04.446,6.9Z" transform="translate(3 4)" fill="none" stroke="#2d264b" stroke-width="1.5"/>
    <path id="Vector-2" data-name="Vector" d="M17.078,2.79l-.089.089-.858.858c-3.333,3.333-5,5-7.071,5s-3.738-1.667-7.071-5l-.776-.776" transform="translate(3 4)" fill="none" stroke="#2d264b" stroke-width="1.5"/>
  </g>
</svg>
