<svg xmlns="http://www.w3.org/2000/svg" width="29" height="24" viewBox="0 0 29 24">
  <g id="Group_1" data-name="Group 1" transform="translate(-5 -8)">
    <g id="Hicon_Bold_Left_2" data-name="Hicon / Bold / Left 2" transform="translate(5 8)">
      <g id="Left_2" data-name="Left 2">
        <path id="Vector" d="M3.515,3.03A22.059,22.059,0,0,0,1.977,4.641a1.8,1.8,0,0,0-.463.891,1.728,1.728,0,0,0,0,.437,1.8,1.8,0,0,0,.463.891A22.055,22.055,0,0,0,3.515,8.47l1.763,1.747a.75.75,0,0,1-1.056,1.065L2.427,9.5A22.65,22.65,0,0,1,.807,7.8a3.259,3.259,0,0,1-.781-1.64,3.228,3.228,0,0,1,0-.816A3.259,3.259,0,0,1,.807,3.7,22.65,22.65,0,0,1,2.427,2L4.222.217A.75.75,0,1,1,5.278,1.283Z" transform="translate(9.25 6.25)" fill="#2d264b"/>
      </g>
    </g>
    <g id="Hicon_Bold_Left_3" data-name="Hicon / Bold / Left 3" transform="translate(10 8)">
      <g id="Left_2-2" data-name="Left 2">
        <path id="Vector-2" data-name="Vector" d="M3.515,3.03A22.059,22.059,0,0,0,1.977,4.641a1.8,1.8,0,0,0-.463.891,1.728,1.728,0,0,0,0,.437,1.8,1.8,0,0,0,.463.891A22.055,22.055,0,0,0,3.515,8.47l1.763,1.747a.75.75,0,0,1-1.056,1.065L2.427,9.5A22.65,22.65,0,0,1,.807,7.8a3.259,3.259,0,0,1-.781-1.64,3.228,3.228,0,0,1,0-.816A3.259,3.259,0,0,1,.807,3.7,22.65,22.65,0,0,1,2.427,2L4.222.217A.75.75,0,1,1,5.278,1.283Z" transform="translate(9.25 6.25)" fill="#2d264b"/>
      </g>
    </g>
  </g>
</svg>
