<svg xmlns="http://www.w3.org/2000/svg" width="38.189" height="42.03" viewBox="0 0 38.189 42.03">
  <g id="linkedin_1_" data-name="linkedin (1)" transform="translate(-6.84 -1.09)">
    <path id="Path_81" data-name="Path 81" d="M25.934,3.762a4.009,4.009,0,0,1,2,.538l12.413,7.165a4.009,4.009,0,0,1,2,3.471V29.271a4.008,4.008,0,0,1-2,3.47L27.939,39.91a4.009,4.009,0,0,1-4.009,0L11.517,32.745a4.009,4.009,0,0,1-2-3.471V14.94a4.008,4.008,0,0,1,2-3.47L23.93,4.3a4.009,4.009,0,0,1,2-.538m0-2.672a6.681,6.681,0,0,0-3.34.9L10.181,9.154A6.681,6.681,0,0,0,6.84,14.94V29.271a6.681,6.681,0,0,0,3.34,5.786l12.414,7.169a6.681,6.681,0,0,0,6.681,0L41.688,35.06a6.681,6.681,0,0,0,3.341-5.786V14.94a6.681,6.681,0,0,0-3.34-5.786L29.275,1.985A6.681,6.681,0,0,0,25.934,1.09Z" transform="translate(0)" fill="#0177b5"/>
    <path id="Path_82" data-name="Path 82" d="M52.043,32H33.336A1.336,1.336,0,0,0,32,33.336V52.043a1.336,1.336,0,0,0,1.336,1.336H52.043a1.336,1.336,0,0,0,1.336-1.336V33.336A1.336,1.336,0,0,0,52.043,32ZM38.681,50.039H35.341V40.017h3.341Zm-1.67-11.358a2,2,0,1,1,2-2A2,2,0,0,1,37.011,38.681ZM50.039,50.039H46.7V43.358c0-.555-.748-1-1.67-1-1.336,0-1.67,1.784-1.67,2.338v5.345H40.017V40.017h3.341v2.338c0-1.67,1.5-2.338,3.341-2.338a3.341,3.341,0,0,1,3.341,3.341Z" transform="translate(-16.755 -20.584)" fill="#0177b5"/>
  </g>
</svg>
