<svg xmlns="http://www.w3.org/2000/svg" width="24" height="24" viewBox="0 0 24 24">
  <g id="vuesax_bold_moon" data-name="vuesax/bold/moon" transform="translate(-108 -188)">
    <g id="moon">
      <path id="Vector" d="M19.224,13.929c-.16-.27-.61-.69-1.73-.49a8.46,8.46,0,0,1-1.88.13,8.409,8.409,0,0,1-5.91-2.82,8.068,8.068,0,0,1-1.44-8.66c.44-1.01.13-1.54-.09-1.76s-.77-.55-1.83-.11a10.318,10.318,0,0,0-6.32,10.21,10.475,10.475,0,0,0,7.04,8.99,10,10,0,0,0,2.89.55c.16.01.32.02.48.02a10.5,10.5,0,0,0,8.47-4.27C19.574,14.789,19.394,14.2,19.224,13.929Z" transform="translate(110.306 190.001)" fill="#292d32"/>
      <path id="Vector-2" data-name="Vector" d="M0,0H24V24H0Z" transform="translate(132 212) rotate(180)" fill="none" opacity="0"/>
    </g>
  </g>
</svg>
