<svg id="Project_Preview" xmlns="http://www.w3.org/2000/svg" width="24" height="24" viewBox="0 0 24 24">
  <g id="Website">
    <path id="Vector" d="M20,10a9.992,9.992,0,1,1-.737-3.776A10.042,10.042,0,0,1,20,10Z" transform="translate(2 2)" fill="none" stroke="#2d264b" stroke-width="1.5"/>
    <path id="Vector-2" data-name="Vector" d="M19.263,6.224l-.04.021a51.947,51.947,0,0,1-5.409,1.343m5.972,4.482a52.294,52.294,0,0,1-6.164,1.553m0,0a52.293,52.293,0,0,1-1.553,6.164m-4.139,0a52.294,52.294,0,0,1-1.553-6.164M6.186,7.587A51.95,51.95,0,0,1,.776,6.244L.739,6.221m5.639,7.4A52.293,52.293,0,0,1,.214,12.069M6.186,7.587A48.914,48.914,0,0,1,7.931.214m4.139,0a48.913,48.913,0,0,1,1.744,7.373m0,0A18.1,18.1,0,0,1,14,10a21.323,21.323,0,0,1-.378,3.622m.192-6.035A21.841,21.841,0,0,1,10,8a21.841,21.841,0,0,1-3.814-.413m7.436,6.035A21.323,21.323,0,0,1,10,14a21.322,21.322,0,0,1-3.622-.378m0,0A21.323,21.323,0,0,1,6,10a18.1,18.1,0,0,1,.186-2.413" transform="translate(2 2)" fill="none" stroke="#2d264b" stroke-width="1.5"/>
  </g>
</svg>
