<svg id="Project_Github" xmlns="http://www.w3.org/2000/svg" width="22" height="21.662" viewBox="0 0 22 21.662">
  <rect id="FontAwesome_-_Icons" data-name="FontAwesome - Icons" width="21.625" height="21.662" fill="none"/>
  <path id="Vector" d="M7.024,16.549c0,.085-.1.153-.22.153-.14.013-.237-.055-.237-.153s.1-.153.22-.153S7.024,16.451,7.024,16.549ZM5.97,16.26c.127.038.207.136.182.221a.2.2,0,0,1-.263.085c-.127-.026-.212-.123-.182-.208A.217.217,0,0,1,5.97,16.26Zm1.859.149c.013.085-.072.166-.195.2s-.237-.026-.25-.11.072-.178.195-.208c.123-.013.237.042.25.123ZM21,10.37a10.554,10.554,0,0,1-7.1,10.157c-.538.1-.732-.238-.732-.514,0-.348.013-2.121.013-3.553a2.518,2.518,0,0,0-.72-1.972c2.367-.268,4.86-.595,4.86-4.7a3.309,3.309,0,0,0-1.092-2.5,4.028,4.028,0,0,0-.11-2.886c-.885-.28-2.921,1.147-2.921,1.147a9.966,9.966,0,0,0-5.318,0S5.838,4.127,4.954,4.4a4.029,4.029,0,0,0-.11,2.886,3.227,3.227,0,0,0-1,2.5c0,4.088,2.388,4.433,4.755,4.7a2.365,2.365,0,0,0-.677,1.432,2.233,2.233,0,0,1-3.086-.888,2.233,2.233,0,0,0-1.634-1.1c-1.037-.013-.068.654-.068.654.694.319,1.177,1.555,1.177,1.555.622,1.9,3.586,1.266,3.586,1.266,0,.892.013,2.346.013,2.609s-.191.612-.732.514A10.652,10.652,0,0,1,0,10.37,10.171,10.171,0,0,1,10.365,0,10.4,10.4,0,0,1,21,10.37ZM4.335,14.7c.072.081.085.178.03.221s-.152.026-.22-.042-.085-.178-.03-.221.152-.026.22.042Zm-.5-.416c.085.042.127.11.1.166a.126.126,0,0,1-.182.03c-.085-.042-.127-.11-.1-.166S3.755,14.258,3.84,14.284Zm1.465,1.585c.085.081.11.208.055.263s-.178.055-.275-.042c-.1-.081-.123-.208-.055-.263S5.212,15.771,5.305,15.869Zm-.521-.582a.194.194,0,0,1,0,.263c-.055.042-.169,0-.237-.1s-.068-.208,0-.251.178-.013.237.085Z" transform="translate(1 0.313)" fill="#2d264b"/>
</svg>
