<svg id="Project_Date" xmlns="http://www.w3.org/2000/svg" width="24" height="24" viewBox="0 0 24 24">
  <g id="Calender_1" data-name="Calender 1">
    <path id="Vector" d="M0,11C0,9.831,0,8.844.029,8,.093,6.136.3,4.966.955,4.061A5,5,0,0,1,2.061,2.955C2.966,2.3,4.136,2.093,6,2.029,6.844,2,7.831,2,9,2s2.156,0,3,.029c1.864.064,3.034.269,3.939.926a5,5,0,0,1,1.106,1.106c.657.9.862,2.075.926,3.939C18,8.844,18,9.831,18,11s0,2.156-.029,3c-.064,1.864-.269,3.034-.926,3.939a5,5,0,0,1-1.106,1.106c-.9.657-2.075.862-3.939.926C11.156,20,10.169,20,9,20c-3.75,0-5.625,0-6.939-.955A5,5,0,0,1,.955,17.939C0,16.625,0,14.75,0,11Z" transform="translate(3 2)" fill="none" stroke="#2d264b" stroke-width="1.5"/>
    <path id="Vector-2" data-name="Vector" d="M6,12h6m0-9V0M6,3V0m6,19.971a12.307,12.307,0,0,1,.062-1.753,5,5,0,0,1,4.156-4.156A12.307,12.307,0,0,1,17.971,14M.029,8H17.971" transform="translate(3 2)" fill="none" stroke="#2d264b" stroke-width="1.5"/>
  </g>
</svg>
