<svg id="Project_Description" xmlns="http://www.w3.org/2000/svg" width="24" height="24" viewBox="0 0 24 24">
  <g id="Document_Justify_Center_1" data-name="Document Justify Center 1">
    <path id="Vector" d="M0,9C0,5.25,0,3.375.955,2.061A5,5,0,0,1,2.061.955,3.8,3.8,0,0,1,3.072.436C4.336,0,6.112,0,9,0c3.3,0,5.149,0,6.44.651a3.608,3.608,0,0,1,.5.3,5,5,0,0,1,1.106,1.106C18,3.375,18,5.25,18,9v2c0,3.75,0,5.625-.955,6.939a5,5,0,0,1-1.106,1.106C14.625,20,12.75,20,9,20s-5.625,0-6.939-.955A5,5,0,0,1,.955,17.939C0,16.625,0,14.75,0,11Z" transform="translate(3 2)" fill="none" stroke="#2d264b" stroke-width="1.5"/>
    <path id="Vector-2" data-name="Vector" d="M15.44.651c-2.462,2.46-3.749,3.7-5.294,3.944a5,5,0,0,1-1.564,0C6.992,4.343,5.676,3.04,3.072.436M5,16h8M5,12h8M5,8h8" transform="translate(3 2)" fill="none" stroke="#2d264b" stroke-width="1.5"/>
  </g>
</svg>
