<svg id="ProjectName" xmlns="http://www.w3.org/2000/svg" width="24" height="24" viewBox="0 0 24 24">
  <g id="Verified">
    <path id="Vector" d="M7.251,2.145a2.957,2.957,0,0,1,5.686,0A2.957,2.957,0,0,0,16.5,4.2a2.957,2.957,0,0,1,2.843,4.924,2.957,2.957,0,0,0,0,4.113A2.957,2.957,0,0,1,16.5,18.164a2.957,2.957,0,0,0-3.562,2.057,2.957,2.957,0,0,1-5.686,0,2.957,2.957,0,0,0-3.562-2.057A2.957,2.957,0,0,1,.846,13.239a2.957,2.957,0,0,0,0-4.113A2.957,2.957,0,0,1,3.689,4.2,2.957,2.957,0,0,0,7.251,2.145Z" transform="translate(1.906 0.817)" fill="none" stroke="#9747ff" stroke-linecap="round" stroke-width="1.5"/>
    <path id="Vector-2" data-name="Vector" d="M14.094,8.183l-3.464,4.156c-.712.854-1.068,1.282-1.536,1.282s-.824-.427-1.536-1.282L6.094,10.583" transform="translate(1.906 0.817)" fill="none" stroke="#9747ff" stroke-linecap="round" stroke-width="1.5"/>
  </g>
</svg>
