<svg xmlns="http://www.w3.org/2000/svg" width="19.2" height="19.2" viewBox="0 0 19.2 19.2">
  <g id="Right_Arrow" transform="matrix(0, 1, -1, 0, 19.2, 0)">
    <path id="arrow-up" d="M0,0H14.2a5,5,0,0,1,5,5V19.2a0,0,0,0,1,0,0H0a0,0,0,0,1,0,0V0A0,0,0,0,1,0,0Z" fill="none"/>
    <g id="vuesax_twotone_arrow-up" data-name="vuesax/twotone/arrow-up">
      <g id="arrow-up-2" data-name="arrow-up">
        <path id="Vector" d="M0,4.856,4.856,0,9.712,4.856" transform="translate(4.744 2.8)" fill="none" stroke="#9747ff" stroke-linecap="round" stroke-linejoin="round" stroke-width="1.5"/>
        <path id="Vector-2" data-name="Vector" d="M0,13.464V0" transform="translate(9.6 2.936)" fill="none" stroke="#9747ff" stroke-linecap="round" stroke-linejoin="round" stroke-width="1.5" opacity="0.4"/>
        <path id="Vector-3" data-name="Vector" d="M0,0H19.2V19.2H0Z" transform="matrix(-1, 0, 0, -1, 19.2, 19.2)" fill="none" opacity="0"/>
      </g>
    </g>
  </g>
</svg>
