<?xml version="1.0" encoding="utf-8"?>
<!-- Generator: Adobe Illustrator 16.2.0, SVG Export Plug-In . SVG Version: 6.00 Build 0)  -->
<!DOCTYPE svg PUBLIC "-//W3C//DTD SVG 1.1//EN" "http://www.w3.org/Graphics/SVG/1.1/DTD/svg11.dtd">
<svg version="1.1" id="Layer_1" xmlns="http://www.w3.org/2000/svg" xmlns:xlink="http://www.w3.org/1999/xlink" x="0px" y="0px"
	 width="29px" height="24px" viewBox="0 0 29 24" enable-background="new 0 0 29 24" xml:space="preserve">
<g id="Group_1" transform="translate(-5 -8)">
	<g id="Hicon_Bold_Left_2" transform="translate(5 8)">
		<g id="Left_2">
			<path id="Vector" fill="#2D264B" d="M14.472,7.533c-0.294-0.292-0.297-0.767-0.005-1.061c0.292-0.294,0.767-0.297,1.061-0.005
				l1.796,1.783c0.569,0.538,1.109,1.105,1.62,1.7c0.41,0.462,0.682,1.033,0.781,1.644c0.033,0.271,0.033,0.545,0,0.816
				c-0.1,0.609-0.371,1.178-0.781,1.64c-0.511,0.595-1.051,1.162-1.62,1.7l-1.796,1.782c-0.291,0.28-0.752,0.278-1.042-0.005
				c-0.296-0.289-0.303-0.764-0.013-1.061l1.762-1.747c0.54-0.511,1.053-1.048,1.539-1.61c0.235-0.246,0.396-0.556,0.463-0.891
				c0.018-0.145,0.018-0.292,0-0.437c-0.066-0.335-0.228-0.644-0.463-0.891c-0.486-0.563-0.999-1.1-1.539-1.611L14.472,7.533z"/>
		</g>
	</g>
	<g id="Hicon_Bold_Left_3" transform="translate(10 8)">
		<g id="Left_2-2">
			<path id="Vector-2" fill="#2D264B" d="M4.473,7.533C4.178,7.241,4.176,6.767,4.467,6.472c0.292-0.294,0.767-0.297,1.061-0.005
				L7.323,8.25c0.569,0.538,1.109,1.105,1.62,1.7c0.411,0.462,0.682,1.033,0.781,1.644c0.034,0.271,0.034,0.545,0,0.816
				c-0.1,0.609-0.371,1.178-0.781,1.64c-0.511,0.595-1.051,1.162-1.62,1.7l-1.796,1.782c-0.291,0.28-0.752,0.278-1.042-0.005
				c-0.296-0.289-0.303-0.764-0.013-1.061l1.762-1.747c0.54-0.511,1.053-1.048,1.539-1.61c0.235-0.246,0.396-0.556,0.463-0.891
				c0.018-0.145,0.018-0.292,0-0.437c-0.066-0.335-0.228-0.644-0.463-0.891c-0.486-0.563-0.999-1.1-1.539-1.611L4.473,7.533z"/>
		</g>
	</g>
</g>
</svg>
