<svg id="Hicon_Bold_Send_2" data-name="Hicon / Bold / Send 2" xmlns="http://www.w3.org/2000/svg" width="23.808" height="24" viewBox="0 0 23.808 24">
  <g id="Send_2" data-name="Send 2" transform="translate(2.232 1.907)">
    <path id="Vector" d="M18.317,14.607A5.2,5.2,0,1,1,8.224,12.189a.141.141,0,0,0-.174-.176,5.23,5.23,0,1,1-2.4-10.174L14.727.085a4.572,4.572,0,0,1,5.33,5.373Z" transform="translate(0 0)" fill="#fff"/>
    <path id="Vector-2" data-name="Vector" d="M1.27,15.841a.74.74,0,0,1-1.052,0,.754.754,0,0,1,0-1.061l1.4-1.414a.74.74,0,0,1,1.052,0,.754.754,0,0,1,0,1.061Z" transform="translate(0 0)" fill="#fff"/>
    <path id="Vector-3" data-name="Vector" d="M6.18,14.073a.754.754,0,0,1,0,1.061l-1.4,1.414a.74.74,0,0,1-1.052,0,.754.754,0,0,1,0-1.061l1.4-1.414a.74.74,0,0,1,1.052,0Z" transform="translate(0 0)" fill="#fff"/>
    <path id="Vector-4" data-name="Vector" d="M5.479,20.084a.74.74,0,0,1-1.052,0,.754.754,0,0,1,0-1.061l1.4-1.414a.74.74,0,0,1,1.052,0,.754.754,0,0,1,0,1.061Z" transform="translate(0 0)" fill="#fff"/>
  </g>
</svg>
